<?xml version="1.0" encoding="UTF-8"?>
<svg width="150px" height="97px" viewBox="0 0 150 97" version="1.1" xmlns="http://www.w3.org/2000/svg" xmlns:xlink="http://www.w3.org/1999/xlink">
    <!-- Generator: Sketch 50.2 (55047) - http://www.bohemiancoding.com/sketch -->
    <title>Slice 1</title>
    <desc>Created with Sketch.</desc>
    <defs></defs>
    <g id="Page-1" stroke="none" stroke-width="1" fill="none" fill-rule="evenodd">
        <g id="html-tech" fill-rule="nonzero">
            <path d="M120.35,77.68 L120.35,3.68 C120.344504,2.87757224 119.692447,2.22998118 118.89,2.23 L3,2.23 C2.60335193,2.21627319 2.21841413,2.36573235 1.93495339,2.64352387 C1.65149265,2.92131539 1.49428827,3.30315558 1.5,3.7 L1.5,77.7 C1.50520579,78.0907667 1.66685485,78.4631347 1.94877399,78.7337771 C2.23069313,79.0044195 2.60934629,79.1507416 3,79.14 L56.44,79.14 L56.44,88.55 C56.4346311,89.3446924 55.7946362,89.9891317 55,90 L48.4,90 C46.7928514,90 45.49,91.3028514 45.49,92.91 L45.49,93.39 L75.49,93.39 L75.49,92.91 C75.4900095,91.3067485 74.193242,90.0055095 72.59,90 L66.86,90 C66.4736972,90.0000092 66.1033604,89.8458698 65.8311434,89.5717754 C65.5589263,89.297681 65.4073358,88.9262936 65.41,88.54 L65.41,79.14 L118.89,79.14 C119.694067,79.1345485 120.344549,78.4840668 120.35,77.68 Z" id="Shape" fill="#FFFFFF"></path>
            <path d="M121.48,57.62 C121.48,56.88 121.48,30.03 121.48,25.99 C121.48,24.82 121.48,23.58 121.41,22.08 C121.41,20.99 121.33,16.34 121.3,10.53 L121.3,4.33 L121.3,4.06 C121.313245,3.76202419 121.29312,3.46350176 121.24,3.17 C121.127811,2.65352927 120.84191,2.19114717 120.43,1.86 C119.859313,1.42476984 119.143719,1.22440362 118.43,1.3 L118,1.3 L94.69,1 C93.19,1 91.69,1 90.2,1.07 L88.28,1.12 L81.1,1.23 C77.65,1.23 73.01,1.32 70.5,1.3 L65.87,1.23 L63.1,1.2 C61.18,1.2 59.26,1.1 57.35,1.1 C51.19,1.1 46.15,1 41.5,0.79 L40.59,0.79 C39.13,0.73 37.59,0.66 36.14,0.66 L36.08,0.66 C34.71,0.66 33.33,0.66 31.95,0.73 C30.83,0.73 29.7,0.79 28.57,0.8 L7.42,0.94 L3,0.92 C1.84666206,0.921914779 0.813381753,1.63328853 0.4,2.71 C0.25383093,3.09921486 0.192462519,3.51515631 0.22,3.93 L0.22,4.07 C0.22,6.71 0.22,9.07 0.13,11.18 C0,15.81 0,20.52 0,25.07 C0,26.91 0,28.76 0,30.61 C0,32 0,33.38 0,34.76 C0,36.14 0.07,37.59 0.1,39.01 C0.17,41.67 0.24,44.43 0.26,47.14 C0.26,49.44 0.26,51.79 0.26,54.06 C0.26,55.42 0.26,56.77 0.26,58.13 L0.26,77.41 C0.217210178,77.903551 0.30335642,78.3997534 0.51,78.85 C0.976764669,79.8699787 2.01993366,80.5006398 3.14,80.44 L18.99,80.44 L30.51,80.37 C31.8,80.37 37.96,80.24 39.75,80.24 L54.89,80.24 C55.129153,80.2399382 55.3245647,80.4309087 55.33,80.67 C55.33,82.37 55.25,88.67 55.2,88.67 C55.15,88.67 49.05,88.6 49.05,88.6 C48.2573413,88.5262297 47.458525,88.6427951 46.72,88.94 C45.8913768,89.2826196 45.1916379,89.8773977 44.72,90.64 C44.4760218,91.1212697 44.2849066,91.6275575 44.15,92.15 C44.15,92.31 44.22,95.22 44.22,95.22 C44.4344679,95.5628924 44.815839,95.7650191 45.22,95.75 L52.33,95.88 C57.92,95.96 65.1,95.88 65.15,95.88 L75.3,95.75 L76.48,95.58 C76.7755053,94.9533201 76.9388936,94.2725357 76.96,93.58 C76.9110061,92.7692844 76.8208902,91.9615784 76.69,91.16 C76.2219186,89.8863868 75.1983227,88.8959288 73.91,88.47 C73.3331496,88.2969173 72.7318991,88.2192277 72.13,88.24 L66.95,88.24 L67,80.79 L79.22,80.89 C80.07,80.89 103.37,80.74 103.37,80.74 L115.75,80.63 L118.69,80.63 C119.363296,80.6721716 120.030613,80.4815096 120.58,80.09 C121.17691,79.6758104 121.572408,79.029952 121.67,78.31 C121.77,78 121.48,57.62 121.48,57.62 Z M96.15,77.84 C93.58,77.84 90.94,77.84 88.4,77.84 C85.58,77.84 82.66,77.93 79.83,77.84 C77.26,77.77 74.65,77.76 72.12,77.75 L65.12,77.75 C64.5677153,77.75 64.12,78.1977153 64.12,78.75 L64.12,85.21 L64.12,88.29 C64.0138317,89.7120796 64.9750764,90.9937392 66.37,91.29 C66.79,91.36 72.84,91.29 73.06,91.35 C73.45,91.47 74.4,92.35 74.06,93.23 C74.06,93.76 51.19,93.46 51.19,93.46 L47.75,93.39 C47.46,92.77 48,91.57 48.28,91.56 L54.61,91.56 C55.3074893,91.6254264 56.0077518,91.4678674 56.61,91.11 C57.3368668,90.6675543 57.8474895,89.9432669 58.02,89.11 C58.02,88.92 58.13,86.45 58.13,86.45 C58.13,85.22 58.21,78.37 58.21,78.37 C58.21,77.8177153 57.7622847,77.37 57.21,77.37 L33.3,77.43 C30.42,77.43 20.3,77.65 18.03,77.67 L3.38,77.67 C3.26067972,77.6729065 3.14551946,77.6260882 3.06207581,77.5407481 C2.97863215,77.455408 2.93441318,77.3392248 2.94,77.22 L3,66.62 C3.09,64.52 3.14,62.26 3.16,59.73 C3.16,50.67 2.72,26.93 2.7,23.15 L2.7,19.42 C2.7,18.63 2.77,16.16 2.84,13.55 C2.94,10.26 3.05,6.55 3.04,4.94 L3.04,3.75 L12.22,3.64 L22.73,3.5 C23.55,3.5 28.38,3.36 29.95,3.38 L60.11,3.8 L67.68,3.93 C69.87,3.99 72.06,4.04 74.26,4.06 C75.26,4.06 85.79,3.94 88.26,3.86 C90.73,3.78 116.69,4.04 116.69,4.04 L118.58,4.04 L118.82,34 C118.82,34.44 118.94,54.06 118.92,54.36 C118.92,55.1 118.82,55.86 118.82,56.62 L118.82,76.87 C118.820262,77.1794654 118.870926,77.4868223 118.97,77.78 L118.89,77.84 L118.68,77.84 L114.03,77.84 C112.42,77.84 110.29,77.84 108.12,77.84 C104,77.91 100.11,77.92 96.15,77.84 Z" id="Shape" fill="#39393A"></path>
            <rect id="Rectangle-path" fill="#3ABEC7" opacity="0.1" x="7.92" y="8.89" width="106.01" height="64.46"></rect>
            <path d="M100.77,73.48 L91.27,73.38 C89.56,73.38 87.93,73.46 86.27,73.51 L84.13,73.51 C81.24,73.51 78.36,73.6 75.44,73.6 C73.79,73.6 68.44,73.41 67.52,73.42 L53.52,73.51 L47.21,73.46 C46.28,73.46 45.36,73.46 44.44,73.52 C42.95,73.52 38.7,73.52 38.07,73.52 L27.9,73.59 C24.81,73.59 21.71,73.53 18.61,73.48 C16.73,73.48 10.07,73.37 7.96,73.48 L7.77,73.48 L7.77,73.28 C7.77,72.96 7.77,72.82 7.77,72.71 C7.6,70.71 7.77,68.63 7.77,66.59 L7.77,64.83 L7.77,58.83 L7.89,49.53 C7.89,47.71 8.01,40.29 7.98,38.39 C7.98,36.67 7.86,34.95 7.85,33.23 L7.85,24.63 C7.85,23.93 7.85,23.22 7.9,22.52 L7.9,15.69 L7.9,8.89 L7.9,8.75 L14.7,8.75 L22.25,8.84 C24.8,8.84 33,8.84 34.56,8.75 L37.83,8.69 L43.1,8.63 L55.84,8.83 C58.36,8.83 65.32,8.83 66.29,8.83 C66.62,8.83 66.95,8.83 67.29,8.83 L72.59,8.83 L98.27,8.9 L106.35,8.95 L113.94,8.95 C113.94,14.03 113.94,23.89 114.06,25.77 C114.06,27.03 114.06,28.29 114.06,29.55 C114.14,32.65 114.06,35.71 113.94,38.73 C113.94,39.36 113.94,43.09 113.94,44.33 C113.94,45.22 113.94,46.12 114.02,47 C114.02,49.13 114.1,51.26 114.1,53.37 C114.1,54.55 113.99,59.17 113.97,60.29 C113.97,61.14 113.97,66.43 113.97,68.22 C113.97,69.35 113.97,70.46 113.97,71.58 C113.97,72.19 113.97,72.77 113.91,73.37 C113.91,73.49 113.78,73.37 113.78,73.26 C113.78,72.46 113.72,67.65 113.7,66.03 C113.7,64.9 113.7,63.81 113.7,62.7 L113.7,59.93 L113.82,55.11 C113.82,54.51 113.82,53.79 113.82,53.17 C113.82,51.26 113.67,44.43 113.59,42.86 C113.51,41.29 113.51,39.5 113.59,37.86 C113.73,35.08 113.67,28.59 113.66,28.18 L113.54,19.85 C113.54,19.49 113.54,15.54 113.54,8.85 L113.81,9.11 C106.91,9.11 95.28,9.04 94.39,9.11 C93.25,9.11 88.39,9.11 83.88,9.11 L75,9 L63.49,9.12 C61.91,9.12 60.32,9.12 58.74,9.12 C57.93,9.12 52.49,8.99 50.57,8.99 C47.96,8.99 45.36,8.88 42.75,8.89 C39.75,8.89 36.82,8.89 33.86,9.04 C30.68,9.17 23.5,9.09 23.08,9.09 C21.08,9.09 19.08,9.09 17.15,9.03 C15.22,8.97 11.29,8.96 7.9,9.03 L8.03,8.91 C8.03,11.63 8.03,13.91 8.03,14.71 L8.03,24.89 L8,29.09 L8,30 L8,32.81 L8,35.52 C8,36.01 8,38.39 8.05,39.08 C8.05,41.16 8.05,43.2333333 8.05,45.3 C8.05,46.15 7.98,47 7.98,47.84 L7.98,54.84 C7.98,56.71 7.91,58.59 7.88,60.46 C7.85,62.33 8,64 8,65.8 C8,67.29 7.9,68.8 7.92,70.27 L7.92,73.34 L7.87,73.34 L15.31,73.21 C15.64,73.21 15.97,73.21 16.31,73.21 L20.44,73.29 C22.51,73.29 24.58,73.38 26.65,73.38 L39.04,73.31 L46.73,73.31 C53.0366667,73.37 59.32,73.37 65.58,73.31 C68.08,73.31 70.58,73.38 73.17,73.43 C75.92,73.43 78.62,73.43 81.32,73.43 C84.48,73.43 87.6,73.32 90.77,73.32 L103.32,73.4 L112.67,73.32 L113.59,73.32 C113.673064,73.336399 113.753709,73.3632808 113.83,73.4 C113.78,73.4 113.76,73.4 113.7,73.46 L113.27,73.46 L100.77,73.48 Z" id="Shape" fill="#39393A"></path>
            <path d="M7.94,73.94 C7.78351576,73.9426748 7.63238045,73.8830652 7.51985367,73.7742893 C7.40732688,73.6655134 7.3426298,73.516485 7.34,73.36 C7.34,72.21 7.25,69.65 7.28,68.6 C7.28,67.95 7.4,49.6 7.4,49.6 C7.4,47.6 7.52,40.31 7.49,38.48 C7.49,37.75 7.37,34.31 7.36,33.31 L7.36,20.76 L7.36,15.67 L7.36,9.62 C7.36264183,9.28051964 7.50003884,8.95599415 7.74196304,8.71782072 C7.98388723,8.47964729 8.3105198,8.34733745 8.65,8.35 L14.65,8.35 C14.65,8.35 32.92,8.41 34.49,8.35 L43.04,8.23 L66.82,8.4 L72.53,8.4 L106.29,8.52 C106.29,8.52 113.81,8.47 114.06,8.71 C114.217149,8.94511031 114.281303,9.23023791 114.24,9.51 C114.24,18.92 114.3,24.35 114.36,25.67 C114.36,26.37 114.45,51.44 114.45,53.29 C114.45,53.29 114.38,71.98 114.37,72.29 C114.370474,73.0551259 113.764652,73.6830591 113,73.71 L100.76,73.86 C100.76,73.86 88.97,73.8 87.87,73.86 C87.33,73.86 47.16,73.86 47.16,73.86 C46.53,73.86 40.41,73.95 38.9,73.95 L27.9,74.03 C25.51,74 10,73.93 7.94,73.94 Z M73.22,72.94 C75.22,72.94 83.57,72.87 84.67,72.85 C86.67,72.85 107.75,72.85 112.33,72.85 C112.627046,72.852664 112.912983,72.7372118 113.124901,72.5290439 C113.33682,72.3208759 113.45736,72.0370462 113.46,71.74 C113.46,69.17 113.51,55.13 113.51,55.13 C113.51,54.54 113.37,28.84 113.36,28.24 L113.27,9.55 C106.19,9.55 95.37,9.49 94.52,9.55 C93.33,9.55 57.98,9.55 57.25,9.55 C55.25,9.55 18.58,9.55 17.15,9.49 C15.72,9.43 12.8,9.42 8.44,9.44 L8.44,14.73 L8.4,30 L8.32,60.49 L8.32,72.49 C8.33083025,72.7511777 8.54865939,72.9556703 8.81,72.95 L26.69,73 L46.77,72.91 C52.78,72.93 72.52,72.93 73.22,73 L73.22,72.94 Z" id="Shape" fill="#3ABEC7"></path>
            <circle id="Oval" fill="#FFFFFF" cx="120.35" cy="67.6" r="26.94"></circle>
            <path d="M25.79,39.39 L45.3401647,29.26 L45.34,32.47 C45.3440108,32.7305368 45.2747086,32.986955 45.14,33.21 C44.9567511,33.4583397 44.71208,33.6547657 44.43,33.78 L33.09,39.54 C32.741334,39.7259992 32.3765037,39.8799643 32,40 C31.63,40.12 31.23,40.24 30.8,40.34 C31.2090046,40.4141528 31.6105914,40.5245891 32,40.67 C32.3696578,40.7956804 32.7304679,40.9460179 33.08,41.12 L44.42,46.86 C44.7069915,46.9819067 44.9532827,47.1831024 45.13,47.44 C45.2624282,47.6603545 45.3316239,47.9129189 45.33,48.17 L45.33,51.4 L25.79,41.26 L25.79,39.39 Z" id="Shape" fill="#0B6F7B"></path>
            <path d="M55.42,57.85 C55.2199401,58.3908375 54.8519794,58.8534166 54.37,59.17 C53.9418989,59.4420063 53.4471223,59.5907853 52.94,59.6 L51.05,59.6 L66.23,21.78 C66.4133257,21.2880293 66.7366105,20.860459 67.16,20.55 C67.5825063,20.258111 68.0866225,20.1075763 68.6,20.12 L70.5,20.12 L55.42,57.85 Z" id="Shape" fill="#0B6F7B"></path>
            <path d="M76.2,51.41 L76.2,48.18 C76.1969615,47.9213468 76.2699856,47.667501 76.41,47.45 C76.5823476,47.1930529 76.8254966,46.9915866 77.11,46.87 L88.45,41.13 C88.7746274,40.9613589 89.1084887,40.8111213 89.45,40.68 C89.8329316,40.5357209 90.2277771,40.425298 90.63,40.35 C90.21,40.25 89.82,40.13 89.45,40.01 C89.1048032,39.8799273 88.7704285,39.7227712 88.45,39.54 L77.11,33.78 C76.8305852,33.6548896 76.5891257,33.4582725 76.41,33.21 C76.2675252,32.9899059 76.1943708,32.7321236 76.2,32.47 L76.2,29.26 L95.73,39.39 L95.73,41.26 L76.2,51.41 Z" id="Shape" fill="#0B6F7B"></path>
            <path d="M147.33,56.65 C145.52,52.55 142.8,47.34 137.9,43.46 C133.818608,40.5249036 128.99616,38.7927027 123.98,38.46 C120.175716,38.2391594 116.358956,38.5249961 112.63,39.31 C106.697417,40.7207554 101.333717,43.9013107 97.25,48.43 C93.54,52.85 92.96,55.16 92.25,58.89 C91.68,61.89 90.11,72.2 93.87,80.18 C97.37,87.61 105.41,92.87 106.43,93.36 C115.295029,97.8591092 125.836315,97.5579296 134.43,92.56 C139.17,90 146,82 147.64,77.07 C150.25,69.36 149.37,61.26 147.33,56.65 Z M144.79,74.14 C143.59,79.54 137.79,87.49 131.04,90.7 C124.84,93.7 116.98,93.7 109.48,90.88 C102.77,88.33 97.8,81.58 96.03,76.4 C94.38,71.58 94.63,64.11 95.73,59.21 C96.3793905,56.2797322 97.8060221,53.5784588 99.86,51.39 C102.61,48.45 108.4,43.33 116.23,42.06 C117.464156,41.8697721 118.711276,41.7761545 119.96,41.78 C125.3,41.78 131.85,43.34 136.52,47.24 C140.363782,50.5304326 143.265826,54.7817022 144.93,59.56 C145.84,62.05 146,68.81 144.79,74.14 Z" id="Shape" fill="#0B6F7B"></path>
            <polygon id="Shape" fill="#3ABEC7" points="131.12 55.14 116.45 69.81 110.22 63.57 103.98 69.81 116.45 82.27 137.35 61.37"></polygon>
        </g>
    </g>
</svg>