<svg xmlns="http://www.w3.org/2000/svg" viewBox="0 0 671.45 598.24"><defs><style>.cls-1{fill:#ebb847;stroke:#979797;fill-rule:evenodd;}</style></defs><title>Asset 7</title><g id="Layer_2" data-name="Layer 2"><g id="Layer_1-2" data-name="Layer 1"><g id="Page-1"><g id="Laurel-Wreath"><path id="Path-1-path" class="cls-1" d="M214.32,438c6.9,25.9,36.9,50.9,35.6,50.4-41.2-16.9-66.3-57.3-49.5-90.8,30.6,40.9,66.5,35.1,56.6,81.1-.2,1.1-.5,2.2-.8,3.3C255.52,484.45,231.62,462.85,214.32,438Z"/><path class="cls-1" d="M176.52,523.65c25.8-14.8,68.8-10.7,67.3-11.3-45.4-19.2-96.7-7.4-109.9,31.8,56-7.9,79.4,24.8,107.9-18.8.7-1,1.3-2.1,2-3.2C245.22,519.75,209.52,517.75,176.52,523.65Z"/><path class="cls-1" d="M333.12,493.75c-7.4-8.9-18.9-9.9-29.6-7.7-6.3,1.3-12,2.7-18.6,2.3a72.4,72.4,0,0,1-20.1-4.5,42.48,42.48,0,0,1-4.9-2.1c9.6,8,17.8,11.1,28.5,12.6-14.3,6.6-32,15.3-43.4,34.6,12.1-10.7,25.9-19.2,40.2-26.6,10.7-5.5,24-15.7,36.7-9.8,8.7,4,13.3,15.7,8.6,24.4a14.87,14.87,0,0,1-4.3,5c-7.2,5.5-21,2.2-21.5-8.1-.2-4.3,3.3-7.5,7.5-8.3,12.1-2.1,14,12.8,14.1,8.9.3-10.5-10.4-18.6-20.2-13.4-10.4,5.5-9.2,19.5-.4,25.9a20.57,20.57,0,0,0,27.8-3.8A23.08,23.08,0,0,0,333.12,493.75Z"/><path class="cls-1" d="M157.62,403.35c-1.3,24.5,17.6,54.6,16.6,53.8-30.9-26.3-41.3-68.5-17.3-92.8,14.9,44.1,47.7,49.3,26.1,86.4-.5.9-1,1.8-1.6,2.7C180.22,455.35,165.52,429.85,157.62,403.35Z"/><path class="cls-1" d="M113.22,473.65c25.3-6,60.4,8.1,59.3,7.2-33.3-27.3-79.3-30.2-100.2-.6,48.9,7.3,60.5,40.6,95.1,11.1l2.5-2.2C171.82,487.45,142.32,477,113.22,473.65Z"/><path class="cls-1" d="M118.92,352.35c-7.3,21.3,1.9,52.8,1.2,51.8-20.8-31-19.4-70.9,7.9-86.4,2.2,42.8,29.9,55.6,1.5,83-.7.6-1.4,1.3-2.1,1.9C125.92,404.05,119.32,377.75,118.92,352.35Z"/><path class="cls-1" d="M60.62,408.25c26.5,3.7,54.9,30.5,54.2,29.2-21.7-38.8-64.8-58.8-95.9-38.2,44.2,25.4,42.8,61.7,87.1,46.4,1-.4,2.1-.7,3.2-1.2C111.72,443.55,87.42,422.45,60.62,408.25Z"/><path class="cls-1" d="M98.12,301.45c-11.8,16.1-12.4,45.1-12.7,44.1-9.4-31.7,2.4-65.1,29.6-70.9-9.5,36.7,10.5,54.9-20.7,70.5-.7.4-1.5.7-2.3,1.1C90.22,347,91.62,323,98.12,301.45Z"/><path class="cls-1" d="M34.42,337c21.8,9.6,39.7,39.4,39.4,38.1-9.2-38.5-41.3-66-72.9-55.9,31.7,32.4,21.8,63.2,63.4,60.8,1,0,2-.1,3-.2C69.62,379.55,53.92,355.55,34.42,337Z"/><path class="cls-1" d="M88.92,246.65c-14.5,12-21.7,38.5-21.8,37.5-1.3-31.2,17.2-59.1,43.5-58.2-17.2,31.5-3,52.8-35.2,59.9-.8.2-1.5.3-2.3.5C71.32,286.65,78.12,265,88.92,246.65Z"/><path class="cls-1" d="M26.22,266.05c16.7,13,25.7,42.4,25.7,41.3.4-35.1-21.3-65.7-50.7-63.8,20.3,34.7,5.1,59.1,41.5,66,.9.2,1.7.3,2.6.5C47.42,310.25,39,286.25,26.22,266.05Z"/><path class="cls-1" d="M92.42,198.35c-14.6,6.9-26.1,27.3-25.9,26.4,5.5-26.1,26.7-45.3,48.2-39-20.8,22.5-13.5,43-41.7,42.2-.7,0-1.3-.1-2-.1C69.42,227.75,79.62,211.25,92.42,198.35Z"/><path class="cls-1" d="M35.92,202c11.7,14.6,13.3,41.7,13.6,40.8,7.6-30.1-4.8-60.9-30.4-65.3,10.3,34-7.8,51.8,22.1,65.2.7.3,1.4.6,2.2.9C45,244.25,42.82,221.85,35.92,202Z"/><path class="cls-1" d="M111,157.15c-14.2,2.7-28.8,17.9-28.4,17.2,10.6-21.5,33.3-33.4,50.6-23.1-23.1,14.8-21.4,34.3-45.7,27.3-.6-.2-1.2-.3-1.8-.5C84.52,177.55,97,165.45,111,157.15Z"/><path class="cls-1" d="M129.62,120.25c-14.1,1.6-29.4,15.3-29.1,14.7,12-20.2,35.1-30.2,51.2-18.9-23.7,12.8-23.5,32-46.7,23.3-.6-.2-1.1-.4-1.7-.6C102.12,138.15,115.32,127.35,129.62,120.25Z"/><path class="cls-1" d="M162,85.75c-14.1-1.1-31.8,9.4-31.3,8.8,15.6-17.5,40.2-22.9,53.9-8.7-25.7,8-29.2,26.9-50.3,13.9a13,13,0,0,1-1.5-1C131.62,98.15,146.62,90,162,85.75Z"/><path class="cls-1" d="M202.32,63.45c-13.3-4.8-33.2.8-32.6.4,19.7-12.9,44.8-11.7,54.3,5.6-26.9,1.1-35.2,18.4-52.2.4-.4-.4-.8-.9-1.2-1.3C169.82,67.45,186.32,63.55,202.32,63.45Z"/><path class="cls-1" d="M53.92,142.85c8.4,14.2,6.5,38.2,6.8,37.3,10.3-25.4,3.3-53.8-18.6-60.9,4.8,31-13.2,44.4,11.3,59.8.6.4,1.2.7,1.8,1.1C56.62,181.05,57.42,161.15,53.92,142.85Z"/><path class="cls-1" d="M84.22,101.15c4,16.2-4.8,38.8-4.2,38.1,17.3-21.5,18.8-51.1-.3-64.3-4.3,31.4-25.6,39.1-6.4,61.1.4.5.9,1,1.4,1.6C75.72,138.85,82.32,119.85,84.22,101.15Z"/><path class="cls-1" d="M116.52,61.65c2.3,14.9-7.5,34.5-6.9,33.9,17.4-17.9,21.2-44.4,5-57.8-6.5,27.9-26.3,33-10.8,54.4a14.31,14.31,0,0,0,1.1,1.5C105.82,94.85,113.32,78.35,116.52,61.65Z"/><path class="cls-1" d="M152.12,39.45c-.4,13.1-11.7,28.3-11.2,27.9,17.6-12.6,24.9-34.6,13.2-48.5-9.9,22.8-27.5,24.1-17.7,44.8.2.5.5,1,.7,1.5C137.82,66.15,146.72,53.15,152.12,39.45Z"/><path class="cls-1" d="M189.32,20.75c-3,12.7-17.2,25.3-16.6,25.1,19.8-8.8,31.4-28.9,22.8-44.9-14.3,20.3-31.8,18-26.3,40.2.1.5.3,1.1.4,1.6C169.92,44,181.32,33.15,189.32,20.75Z"/><path class="cls-1" d="M221.22,30.35c-16.6.5-36,14.9-35.5,14.2,16.1-22.4,44.1-31.7,61.8-16.9-29,12.6-30.7,35-57,22.5-.6-.3-1.3-.6-1.9-.9C187.32,48.55,203.82,37.15,221.22,30.35Z"/><path class="cls-1" d="M191,451.75a4.71,4.71,0,0,1,2,9.2,4.72,4.72,0,0,1-5.6-3.6A4.83,4.83,0,0,1,191,451.75Z"/><path class="cls-1" d="M103.12,449.25a3.94,3.94,0,1,1-3,4.7A3.92,3.92,0,0,1,103.12,449.25Z"/><path class="cls-1" d="M93.52,358.55a3.87,3.87,0,0,1,4.7,3,3.92,3.92,0,0,1-3,4.7,3.87,3.87,0,0,1-4.7-3A4,4,0,0,1,93.52,358.55Z"/><path class="cls-1" d="M58.12,382.05a3.94,3.94,0,0,1,1.7,7.7,3.92,3.92,0,0,1-4.7-3A4,4,0,0,1,58.12,382.05Z"/><path class="cls-1" d="M37.32,311.05a3.93,3.93,0,1,1-3.1,4.7A3.92,3.92,0,0,1,37.32,311.05Z"/><path class="cls-1" d="M73.82,299a3.87,3.87,0,0,1,4.7,3,3.94,3.94,0,0,1-7.7,1.7A4,4,0,0,1,73.82,299Z"/><path class="cls-1" d="M66.52,237.25a3.93,3.93,0,1,1,1.6,7.7,4,4,0,0,1-4.7-3A4,4,0,0,1,66.52,237.25Z"/><path class="cls-1" d="M38.22,248.25a3,3,0,0,1,3.6,2.4,3.1,3.1,0,0,1-2.3,3.7,3.12,3.12,0,1,1-1.3-6.1Z"/><path class="cls-1" d="M80.32,184.45a3.09,3.09,0,0,1,3.7,2.4,3,3,0,0,1-2.4,3.6,3.1,3.1,0,0,1-3.7-2.3A3.17,3.17,0,0,1,80.32,184.45Z"/><path class="cls-1" d="M48.42,184.65a3.13,3.13,0,0,1,1.4,6.1,3.14,3.14,0,0,1-3.7-2.4A3,3,0,0,1,48.42,184.65Z"/><path class="cls-1" d="M68,138a3,3,0,0,1,3.6,2.4,3.07,3.07,0,1,1-6,1.3A3.25,3.25,0,0,1,68,138Z"/><path class="cls-1" d="M97.62,91.35a3.13,3.13,0,1,1-2.3,3.8A3.09,3.09,0,0,1,97.62,91.35Z"/><path class="cls-1" d="M129.52,63.05a3,3,0,0,1,3.6,2.4,3,3,0,0,1-2.3,3.6,3.1,3.1,0,0,1-3.7-2.3A3,3,0,0,1,129.52,63.05Z"/><path class="cls-1" d="M162.22,40.15a2.86,2.86,0,1,1-2.2,3.4A3,3,0,0,1,162.22,40.15Z"/><path class="cls-1" d="M168.72,57.05a2.8,2.8,0,1,1-2.2,3.3A3,3,0,0,1,168.72,57.05Z"/><path class="cls-1" d="M163.62,70.55a3.12,3.12,0,1,1-2.4,3.7A3,3,0,0,1,163.62,70.55Z"/><path class="cls-1" d="M123.92,103.35a3.07,3.07,0,1,1-2.4,3.6A3,3,0,0,1,123.92,103.35Z"/><path class="cls-1" d="M96.42,145.85a3.1,3.1,0,0,1,3.7,2.3,3.14,3.14,0,0,1-2.4,3.7,3.07,3.07,0,1,1-1.3-6Z"/><path class="cls-1" d="M132.82,414.75a3.94,3.94,0,1,1-3,4.7A4,4,0,0,1,132.82,414.75Z"/><path class="cls-1" d="M193.92,462.55a3.94,3.94,0,0,1,1.7,7.7,3.94,3.94,0,1,1-1.7-7.7Z"/><path class="cls-1" d="M179.42,494.15a3.94,3.94,0,1,1-3,4.7A3.82,3.82,0,0,1,179.42,494.15Z"/><path class="cls-1" d="M167,495.85a4.72,4.72,0,0,1,5.6,3.6,4.65,4.65,0,0,1-3.6,5.6,4.72,4.72,0,0,1-5.6-3.6A4.62,4.62,0,0,1,167,495.85Z"/><path class="cls-1" d="M292.32,501.55a3.92,3.92,0,0,1,4.7,3,4,4,0,0,1-3,4.7,3.92,3.92,0,0,1-4.7-3A4,4,0,0,1,292.32,501.55Z"/><path class="cls-1" d="M282,507.85a3.92,3.92,0,0,1,4.7,3,3.87,3.87,0,0,1-3,4.7,3.94,3.94,0,1,1-1.7-7.7Z"/><path class="cls-1" d="M457.12,438c-6.9,25.9-36.9,50.9-35.6,50.4,41.2-16.9,66.3-57.3,49.5-90.8-30.5,40.9-66.5,35.1-56.6,81.1.2,1.1.5,2.2.8,3.3C415.92,484.45,439.82,462.85,457.12,438Z"/><path class="cls-1" d="M494.92,523.65c-25.8-14.8-68.8-10.7-67.3-11.3,45.4-19.2,96.7-7.4,109.9,31.8-56-7.9-79.4,24.8-107.8-18.8-.7-1-1.3-2.1-2-3.2C426.12,519.75,461.82,517.75,494.92,523.65Z"/><path class="cls-1" d="M338.32,493.75c7.4-8.9,18.9-9.9,29.6-7.7,6.4,1.3,12,2.7,18.6,2.3a72.4,72.4,0,0,0,20.1-4.5,42.48,42.48,0,0,0,4.9-2.1c-9.6,8-17.8,11.1-28.5,12.6,14.3,6.6,32,15.3,43.4,34.6-12.1-10.7-25.9-19.2-40.2-26.6-10.7-5.5-24-15.7-36.7-9.8-8.7,4-13.3,15.7-8.6,24.4a13.84,13.84,0,0,0,4.3,5c7.2,5.5,21,2.2,21.5-8.1.2-4.3-3.3-7.5-7.6-8.3-12.1-2.1-14,12.8-14.1,8.9-.3-10.5,10.5-18.6,20.2-13.4,10.4,5.5,9.2,19.5.4,25.9a20.57,20.57,0,0,1-27.8-3.8A23.21,23.21,0,0,1,338.32,493.75Z"/><path class="cls-1" d="M513.82,403.35c1.3,24.5-17.6,54.6-16.6,53.8,30.9-26.3,41.2-68.5,17.3-92.8-14.9,44.1-47.7,49.3-26.1,86.4.5.9,1,1.8,1.6,2.7C491.22,455.35,505.82,429.85,513.82,403.35Z"/><path class="cls-1" d="M558.22,473.65c-25.3-6-60.4,8.1-59.3,7.2,33.3-27.4,79.3-30.2,100.1-.6-48.9,7.3-60.5,40.6-95.1,11.1l-2.5-2.2C499.62,487.45,529.12,477,558.22,473.65Z"/><path class="cls-1" d="M552.52,352.35c7.3,21.3-1.9,52.8-1.2,51.8,20.8-31,19.4-70.9-7.9-86.4-2.2,42.8-29.9,55.6-1.5,83,.7.6,1.4,1.3,2.1,1.9C545.52,404.05,552.12,377.75,552.52,352.35Z"/><path class="cls-1" d="M610.72,408.25c-26.5,3.7-54.9,30.5-54.2,29.2,21.7-38.8,64.8-58.8,95.9-38.2-44.2,25.4-42.8,61.7-87.2,46.4-1-.4-2.1-.7-3.2-1.2C559.72,443.55,584,422.45,610.72,408.25Z"/><path class="cls-1" d="M573.32,301.45c11.8,16.1,12.4,45.1,12.7,44.1,9.4-31.7-2.4-65.1-29.6-70.9,9.5,36.7-10.5,54.9,20.7,70.5.7.4,1.5.7,2.3,1.1C581.22,347,579.82,323,573.32,301.45Z"/><path class="cls-1" d="M637,337c-21.8,9.6-39.7,39.4-39.4,38.1,9.2-38.5,41.3-66,72.9-55.9-31.7,32.4-21.7,63.2-63.4,60.8-1,0-2-.1-3-.2C601.82,379.55,617.52,355.55,637,337Z"/><path class="cls-1" d="M582.52,246.65c14.5,12,21.7,38.5,21.8,37.5,1.3-31.2-17.2-59.1-43.5-58.2,17.2,31.5,3,52.8,35.2,59.9.8.2,1.5.3,2.3.5C600.12,286.65,593.32,265,582.52,246.65Z"/><path class="cls-1" d="M645.22,266.05c-16.7,13-25.7,42.4-25.7,41.3-.4-35.1,21.3-65.7,50.7-63.8-20.3,34.7-5.1,59.1-41.5,66-.9.2-1.7.3-2.6.5C624,310.25,632.42,286.25,645.22,266.05Z"/><path class="cls-1" d="M579,198.35c14.6,6.9,26.1,27.3,25.9,26.4-5.5-26.1-26.7-45.3-48.2-39,20.8,22.5,13.5,43,41.7,42.2.7,0,1.3-.1,2-.1C602,227.75,591.82,211.25,579,198.35Z"/><path class="cls-1" d="M635.52,202c-11.7,14.6-13.3,41.7-13.5,40.8-7.6-30.1,4.8-60.9,30.4-65.3-10.3,34,7.8,51.8-22.1,65.2-.7.3-1.4.6-2.2.9C626.42,244.25,628.62,221.85,635.52,202Z"/><path class="cls-1" d="M560.32,157.15c14.2,2.7,28.8,17.9,28.4,17.2-10.6-21.5-33.3-33.4-50.6-23.1,23.1,14.8,21.4,34.3,45.7,27.3.6-.2,1.2-.3,1.8-.5C586.92,177.55,574.42,165.45,560.32,157.15Z"/><path class="cls-1" d="M541.82,120.25c14.1,1.6,29.4,15.3,29.1,14.7-12-20.2-35-30.2-51.2-18.9,23.7,12.8,23.5,32,46.7,23.3.5-.2,1.1-.4,1.7-.6C569.22,138.15,556.12,127.35,541.82,120.25Z"/><path class="cls-1" d="M509.32,85.75c14.1-1.1,31.9,9.4,31.3,8.8-15.7-17.5-40.2-22.9-53.9-8.7,25.7,8,29.2,26.9,50.3,13.9a13,13,0,0,0,1.5-1C539.82,98.15,524.82,90,509.32,85.75Z"/><path class="cls-1" d="M469.12,63.45c13.4-4.8,33.2.8,32.6.4-19.7-12.9-44.8-11.7-54.3,5.6,26.9,1.1,35.2,18.4,52.2.4.4-.4.8-.9,1.2-1.3C501.62,67.45,485.12,63.55,469.12,63.45Z"/><path class="cls-1" d="M617.52,142.85c-8.4,14.2-6.5,38.2-6.8,37.3-10.3-25.4-3.3-53.8,18.6-60.9-4.8,31,13.2,44.4-11.3,59.8-.6.4-1.2.7-1.8,1.1C614.82,181.05,614,161.15,617.52,142.85Z"/><path class="cls-1" d="M587.22,101.15c-4,16.2,4.8,38.8,4.2,38.1-17.4-21.5-18.9-51.1.3-64.3,4.4,31.4,25.6,39.1,6.5,61.1-.5.5-.9,1-1.4,1.6C595.72,138.85,589.12,119.85,587.22,101.15Z"/><path class="cls-1" d="M554.92,61.65c-2.3,14.9,7.5,34.5,7,33.9-17.4-17.9-21.2-44.4-5-57.8,6.5,27.9,26.3,33,10.8,54.4-.4.5-.7,1-1.1,1.5C565.62,94.85,558.12,78.35,554.92,61.65Z"/><path class="cls-1" d="M519.32,39.45c.4,13.1,11.7,28.3,11.2,27.9-17.6-12.6-24.9-34.6-13.2-48.5,9.9,22.8,27.5,24.1,17.7,44.8-.2.5-.5,1-.7,1.5C533.62,66.15,524.62,53.15,519.32,39.45Z"/><path class="cls-1" d="M482.12,20.75c3,12.7,17.2,25.3,16.6,25.1-19.8-8.8-31.4-28.9-22.8-44.9,14.3,20.3,31.8,18,26.3,40.2-.1.5-.3,1.1-.4,1.6C501.52,44,490.12,33.15,482.12,20.75Z"/><path class="cls-1" d="M450.22,30.35c16.6.5,36,14.9,35.5,14.2-16.1-22.4-44.1-31.7-61.9-16.9,29,12.6,30.7,35,57,22.5.6-.3,1.2-.6,1.9-.9C484.12,48.55,467.62,37.15,450.22,30.35Z"/><path class="cls-1" d="M480.42,451.75a4.83,4.83,0,0,0-5.6,3.6,4.77,4.77,0,0,0,3.6,5.6,4.71,4.71,0,1,0,2-9.2Z"/><path class="cls-1" d="M568.22,449.25a3.94,3.94,0,1,0,3,4.7A3.85,3.85,0,0,0,568.22,449.25Z"/><path class="cls-1" d="M577.92,358.55a3.94,3.94,0,0,0-1.7,7.7,3.87,3.87,0,0,0,4.7-3A4,4,0,0,0,577.92,358.55Z"/><path class="cls-1" d="M613.32,382.05a3.92,3.92,0,0,0-4.7,3,3.87,3.87,0,0,0,3,4.7,3.92,3.92,0,0,0,4.7-3A4,4,0,0,0,613.32,382.05Z"/><path class="cls-1" d="M634.12,311.05a3.87,3.87,0,0,0-4.7,3,4,4,0,1,0,4.7-3Z"/><path class="cls-1" d="M597.62,299a3.94,3.94,0,1,0-1.7,7.7,3.87,3.87,0,0,0,4.7-3A4,4,0,0,0,597.62,299Z"/><path class="cls-1" d="M604.92,237.25a3.94,3.94,0,0,0-1.7,7.7,3.94,3.94,0,1,0,1.7-7.7Z"/><path class="cls-1" d="M633.22,248.25a3.12,3.12,0,0,0-1.3,6.1,3,3,0,0,0,3.6-2.4A3.05,3.05,0,0,0,633.22,248.25Z"/><path class="cls-1" d="M591.12,184.45a3.09,3.09,0,0,0-3.7,2.4,3,3,0,0,0,2.4,3.6,3.1,3.1,0,0,0,3.7-2.3A3.17,3.17,0,0,0,591.12,184.45Z"/><path class="cls-1" d="M623,184.65a3.12,3.12,0,1,0,2.4,3.7A3,3,0,0,0,623,184.65Z"/><path class="cls-1" d="M603.32,138a3,3,0,0,0-3.6,2.4,3.07,3.07,0,1,0,3.6-2.4Z"/><path class="cls-1" d="M573.82,91.35a3.12,3.12,0,1,0,2.4,3.8A3.22,3.22,0,0,0,573.82,91.35Z"/><path class="cls-1" d="M541.92,63.05a3.09,3.09,0,0,0-3.7,2.4,3,3,0,0,0,2.3,3.6,3.1,3.1,0,0,0,3.7-2.3A2.92,2.92,0,0,0,541.92,63.05Z"/><path class="cls-1" d="M509.22,40.15a2.76,2.76,0,0,0-3.3,2.2,2.9,2.9,0,0,0,2.2,3.4,2.76,2.76,0,0,0,3.3-2.2A3.08,3.08,0,0,0,509.22,40.15Z"/><path class="cls-1" d="M502.72,57.05a2.9,2.9,0,0,0-3.4,2.2,2.76,2.76,0,0,0,2.2,3.3,2.9,2.9,0,0,0,3.4-2.2A3,3,0,0,0,502.72,57.05Z"/><path class="cls-1" d="M507.82,70.55a3.12,3.12,0,0,0-1.3,6.1,3,3,0,0,0,3.6-2.4A2.92,2.92,0,0,0,507.82,70.55Z"/><path class="cls-1" d="M547.52,103.35a3.07,3.07,0,1,0,2.4,3.6A3,3,0,0,0,547.52,103.35Z"/><path class="cls-1" d="M575,145.85a3.1,3.1,0,0,0-3.7,2.3,3.15,3.15,0,0,0,2.3,3.7,3.09,3.09,0,0,0,3.7-2.4A2.93,2.93,0,0,0,575,145.85Z"/><path class="cls-1" d="M538.62,414.75a3.94,3.94,0,1,0-1.7,7.7,3.87,3.87,0,0,0,4.7-3A4,4,0,0,0,538.62,414.75Z"/><path class="cls-1" d="M477.52,462.55a3.94,3.94,0,1,0,3,4.7A3.85,3.85,0,0,0,477.52,462.55Z"/><path class="cls-1" d="M492,494.15a3.94,3.94,0,1,0,3,4.7A3.92,3.92,0,0,0,492,494.15Z"/><path class="cls-1" d="M504.42,495.85a4.77,4.77,0,0,0-5.6,3.6,4.65,4.65,0,0,0,3.6,5.6,4.72,4.72,0,0,0,5.6-3.6A4.62,4.62,0,0,0,504.42,495.85Z"/><path class="cls-1" d="M379.12,501.55a3.94,3.94,0,1,0,3,4.7A4,4,0,0,0,379.12,501.55Z"/><path class="cls-1" d="M389.42,507.85a3.92,3.92,0,0,0-4.7,3,3.94,3.94,0,1,0,4.7-3Z"/><path class="cls-1" d="M257.82,562.75c22.1-23.5,68.1-32.9,66.4-33.1-53.2-5.6-102.9,22.9-104.2,67.8,55.7-25.8,90.4.7,106.2-53.6.4-1.3.7-2.6,1.1-4C328,537.05,290.32,546.25,257.82,562.75Z"/><path class="cls-1" d="M413.62,562.75c-22.1-23.5-68.1-32.9-66.4-33.1,53.2-5.6,102.9,22.9,104.2,67.8-55.7-25.8-90.4.7-106.2-53.6-.4-1.3-.7-2.6-1.1-4C343.42,537.05,381.12,546.25,413.62,562.75Z"/></g></g></g></g></svg>