<svg xmlns="http://www.w3.org/2000/svg" viewBox="0 0 436.9 236.3"><defs><style>.cls-1{fill:#d9a84e;}.cls-2,.cls-3{fill:none;}.cls-2{stroke:#415b76;stroke-linecap:round;stroke-width:3.65px;}.cls-4{fill:#415b76;}</style></defs><title>Asset 4</title><g id="Layer_2" data-name="Layer 2"><g id="Layer_1-2" data-name="Layer 1"><g id="Page-1"><path id="Path-6" class="cls-1" d="M228.5,115.5c1,.3,2,.6,2.9.8,40.3,10.5,36.5-21.5,73.8-47-28.9-16-65.6,4.6-82.1,40.4-.5,1.2,22.7-24.4,45.9-29.6-22.7,14.4-42.7,34.7-40.5,35.4Zm-61-35.3c23.2,5.2,46.4,30.7,45.9,29.6C196.9,74,160.2,53.4,131.3,69.4c37.3,25.5,33.6,57.5,73.8,47,.9-.3,1.9-.5,2.9-.8,2.2-.7-17.8-21.1-40.5-35.4Zm61.4-52.5C220.5,12.3,218.2,0,218.2,0s-2.3,12.4-10.7,27.7S187,72.8,213.7,93.9l4.5-54.3,4.5,54.3c26.8-21.1,14.6-50.8,6.2-66.2Zm21.5,16.7a4.2,4.2,0,1,0,4.2,4.2A4.23,4.23,0,0,0,250.4,44.4Zm-63.9,0a4.2,4.2,0,1,0,4.2,4.2A4.23,4.23,0,0,0,186.5,44.4Zm71.9,8.9a5.2,5.2,0,1,0,5.2,5.2A5.16,5.16,0,0,0,258.4,53.3Zm-80,0a5.2,5.2,0,1,0,5.2,5.2A5.16,5.16,0,0,0,178.4,53.3Z"/><path id="Path-11" class="cls-1" d="M270,156.2c-23.2-5.1-46.4-30.7-45.9-29.6,16.5,35.8,53.2,56.4,82.1,40.4-37.3-25.5-33.6-57.5-73.8-47-.9.3-1.9.5-2.9.8-2.2.7,17.8,21,40.5,35.4Zm-61-35.4c-1-.3-2-.6-2.9-.8-40.3-10.5-36.5,21.5-73.8,47,28.9,16,65.6-4.6,82.1-40.4.5-1.2-22.7,24.4-45.9,29.6,22.7-14.3,42.7-34.7,40.5-35.4Zm14.7,21.6-4.5,54.3-4.5-54.3c-26.7,21-14.6,50.8-6.2,66.2s10.7,27.7,10.7,27.7,2.3-12.4,10.7-27.7,20.6-45.1-6.2-66.2Zm31.8,45.4a4.2,4.2,0,1,0-4.2,4.2A4.23,4.23,0,0,0,255.5,187.8Zm-63.9,0a4.2,4.2,0,1,0-4.2,4.2A4.23,4.23,0,0,0,191.6,187.8Zm73-10a5.2,5.2,0,1,0-5.2,5.2A5.16,5.16,0,0,0,264.6,177.8Zm-80,0a5.2,5.2,0,1,0-5.2,5.2A5.16,5.16,0,0,0,184.6,177.8Z"/><path class="cls-2" d="M334.8,118h-233"/><path class="cls-1" d="M66.7,160.5c4.3-19.3,25.6-38.6,24.6-38.2-29.8,13.7-47,44.3-33.6,68.3,21.2-31.1,47.8-27.9,39.1-61.5a21.72,21.72,0,0,0-.7-2.4C95.6,125,78.6,141.7,66.7,160.5Zm29.5-50.7a21.72,21.72,0,0,0,.7-2.4C105.6,73.9,79,77,57.8,45.9,44.5,70,61.6,100.5,91.4,114.2c1,.4-20.3-18.9-24.6-38.2C78.7,95,95.6,111.6,96.2,109.8Zm-18,12.3L33,118.4l45.2-3.7c-17.5-22.3-42.3-12.1-55.1-5.2A86.05,86.05,0,0,1,0,118.4a90.48,90.48,0,0,1,23.1,8.9c12.8,6.9,37.5,17,55.1-5.2ZM40.4,148.5a3.48,3.48,0,0,0,3.5-3.5,3.54,3.54,0,0,0-3.5-3.5,3.5,3.5,0,0,0,0,7Zm0-53.2a3.48,3.48,0,0,0,3.5-3.5,3.54,3.54,0,0,0-3.5-3.5,3.5,3.5,0,1,0,0,7Zm8.3,60.8a4.3,4.3,0,1,0-4.3-4.3A4.27,4.27,0,0,0,48.7,156.1Zm0-66.6a4.3,4.3,0,1,0-4.3-4.3A4.33,4.33,0,0,0,48.7,89.5Z"/><path class="cls-1" d="M231.2,117.9a12,12,0,1,0-12,12A12,12,0,0,0,231.2,117.9Z"/><path class="cls-3" d="M219.1,103a15.8,15.8,0,1,0,15.8,15.8A15.83,15.83,0,0,0,219.1,103Zm0,7.6a8.2,8.2,0,1,1-8.2,8.2A8.24,8.24,0,0,1,219.1,110.6Z"/><path class="cls-4" d="M128,95.5c-4.3-4.6-10.1-1.3-11.5,5.8-.8,3.8,1.2,5,2.6,1.6,2.5-5.8,7.2-3.9,7.8,1.1.7,5.7-4.1,8.2-7.4,7.1-8.5-2.6-15.4-24-15.4-24-.9-3.7-3.5-2.3-3.2,1.6a83.23,83.23,0,0,1-2.2,28.2c-1,3.7,3.3,5.3,4.3,1.6a88.4,88.4,0,0,0,2.7-16.2A43.78,43.78,0,0,0,112,112c4.6,5.2,11.1,8.2,16.2,2.3,4.1-4.9,4.3-14.1-.2-18.8Zm.1,26.1c-5-5.8-11.6-2.9-16.2,2.3a47.65,47.65,0,0,0-6.3,9.7,87,87,0,0,0-2.7-16.2c-1-3.6-5.3-2.1-4.3,1.6a81,81,0,0,1,2.2,28.2c-.3,3.9,2.3,5.3,3.2,1.6,0,0,7-21.4,15.4-24,3.4-1,8.2,1.4,7.4,7.1-.6,4.9-5.4,6.9-7.8,1.1-1.4-3.4-3.4-2.2-2.6,1.6,1.4,7,7.2,10.3,11.5,5.8,4.6-4.7,4.4-13.9.2-18.8Z"/><path class="cls-1" d="M340.7,126.8a21.72,21.72,0,0,0-.7,2.4c-8.7,33.5,17.9,30.4,39.1,61.5,13.3-24.1-3.8-54.6-33.6-68.3-1-.4,20.3,18.9,24.6,38.2C358.2,141.7,341.2,125,340.7,126.8Zm29.4-50.7c-4.3,19.3-25.6,38.6-24.6,38.2,29.8-13.7,47-44.3,33.6-68.3-21.2,31-47.8,27.9-39.1,61.5a21.72,21.72,0,0,0,.7,2.4C341.2,111.6,358.2,95,370.1,76.1Zm43.7,51.1a86.05,86.05,0,0,1,23.1-8.9,90.48,90.48,0,0,1-23.1-8.9c-12.8-7-37.6-17.1-55.1,5.2l45.2,3.7L358.7,122c17.5,22.3,42.3,12.2,55.1,5.2Zm-13.9,17.9a3.54,3.54,0,0,0-3.5-3.5,3.48,3.48,0,0,0-3.5,3.5,3.5,3.5,0,1,0,7,0Zm0-53.2a3.54,3.54,0,0,0-3.5-3.5,3.48,3.48,0,0,0-3.5,3.5,3.5,3.5,0,0,0,7,0Zm-7.4,59.9a4.3,4.3,0,1,0-4.3,4.3A4.33,4.33,0,0,0,392.5,151.8Zm0-66.6a4.3,4.3,0,1,0-4.3,4.3A4.33,4.33,0,0,0,392.5,85.2Z"/><path class="cls-4" d="M308.7,95.5c4.3-4.6,10.1-1.3,11.5,5.8.8,3.8-1.2,5-2.6,1.6-2.5-5.8-7.2-3.9-7.8,1.1-.7,5.7,4.1,8.2,7.4,7.1,8.5-2.6,15.4-24,15.4-24,.9-3.7,3.5-2.3,3.2,1.6a83.23,83.23,0,0,0,2.2,28.2c1,3.7-3.3,5.3-4.3,1.6a88.4,88.4,0,0,1-2.7-16.2,43.78,43.78,0,0,1-6.3,9.7c-4.6,5.2-11.1,8.2-16.2,2.3-4.1-4.9-4.4-14.1.2-18.8Zm-.1,26.1c5-5.8,11.6-2.9,16.2,2.3a47.65,47.65,0,0,1,6.3,9.7,87,87,0,0,1,2.7-16.2c1-3.6,5.3-2.1,4.3,1.6a81,81,0,0,0-2.2,28.2c.3,3.9-2.3,5.3-3.2,1.6,0,0-7-21.4-15.4-24-3.4-1-8.2,1.4-7.4,7.1.6,4.9,5.4,6.9,7.8,1.1,1.4-3.4,3.4-2.2,2.6,1.6-1.4,7-7.2,10.3-11.5,5.8-4.7-4.7-4.5-13.9-.2-18.8Z"/></g></g></g></svg>