<?xml version="1.0" encoding="UTF-8"?>
<svg width="776px" height="411px" viewBox="0 0 776 411" version="1.1" xmlns="http://www.w3.org/2000/svg" xmlns:xlink="http://www.w3.org/1999/xlink">
    <!-- Generator: Sketch 50.2 (55047) - http://www.bohemiancoding.com/sketch -->
    <title>nameplate 2</title>
    <desc>Created with Sketch.</desc>
    <defs></defs>
    <g id="Page-1" stroke="none" stroke-width="1" fill="none" fill-rule="evenodd">
        <g id="nameplate" transform="translate(2.000000, 0.000000)">
            <path d="M0.08,156 L771.38,156" id="Path-2" stroke="#D9A84E" stroke-width="4.15" stroke-linecap="round"></path>
            <path d="M623.67,132 L148.07,132" id="Path-3" stroke="#D9A84E" stroke-width="3.32" stroke-linecap="round"></path>
            <path d="M412.08,116 L556.08,116" id="Path-4" stroke="#D9A84E" stroke-width="2.08" stroke-linecap="round"></path>
            <path d="M356.48,116 L215.07,116" id="Path-5" stroke="#D9A84E" stroke-width="2.08"></path>
            <path d="M396.27,115.5 C397.27,115.8 398.27,116.1 399.17,116.3 C439.47,126.8 435.67,94.8 472.97,69.3 C444.07,53.3 407.37,73.9 390.87,109.7 C390.37,110.9 413.57,85.3 436.77,80.1 C414.08,94.5 394.08,114.8 396.27,115.5 Z M335.27,80.2 C358.48,85.3 381.67,110.9 381.17,109.8 C364.67,74 328,53.4 299.07,69.4 C336.37,94.9 332.67,126.8 372.88,116.4 C373.77,116.1 374.77,115.9 375.77,115.6 C377.98,114.9 357.98,94.5 335.27,80.2 Z M396.67,27.7 C388.38,12.3 386,0 386,0 C386,0 383.7,12.4 375.29,27.7 C366.88,43 354.79,72.8 381.5,93.9 L386,39.6 L390.5,93.9 C417.29,72.8 405.1,43.1 396.69,27.7 L396.67,27.7 Z M418.17,44.4 C415.851714,44.4055197 413.976328,46.288361 413.980005,48.6066508 C413.983683,50.9249406 415.865033,52.8018223 418.183325,52.7999868 C420.501617,52.7981512 422.379993,50.9182928 422.38,48.6 C422.363595,46.2833366 420.486696,44.4108957 418.17,44.4 Z M354.27,44.4 C351.951714,44.4055197 350.076328,46.288361 350.080005,48.6066508 C350.083683,50.9249406 351.965033,52.8018223 354.283325,52.7999868 C356.601617,52.7981512 358.479993,50.9182928 358.48,48.6 C358.463595,46.2833366 356.586696,44.4108957 354.27,44.4 Z M426.17,53.3 C423.299428,53.3055203 420.976326,55.6360784 420.980004,58.5066538 C420.983683,61.3772293 423.31275,63.7018259 426.183327,63.6999893 C429.053904,63.6981527 431.379995,61.3705778 431.38,58.5 C431.390796,57.115855 430.845029,55.7854093 429.865321,54.8075819 C428.885613,53.8297546 427.554122,53.2865452 426.17,53.3 Z M346.17,53.3 C343.299428,53.3055203 340.976326,55.6360784 340.980004,58.5066538 C340.983683,61.3772293 343.31275,63.7018259 346.183327,63.6999893 C349.053904,63.6981527 351.379995,61.3705778 351.38,58.5 C351.390796,57.115855 350.845029,55.7854093 349.865321,54.8075819 C348.885613,53.8297546 347.554122,53.2865452 346.17,53.3 Z" id="Shape" fill="#D9A84E" fill-rule="nonzero"></path>
            <path d="M771.38,255 L0.08,255" id="Path-7" stroke="#D9A84E" stroke-width="4.15" stroke-linecap="round"></path>
            <path d="M623.67,278 L148.07,278" id="Path-8" stroke="#D9A84E" stroke-width="3.32" stroke-linecap="round"></path>
            <path d="M556.08,294 L412.08,294" id="Path-9" stroke="#D9A84E" stroke-width="2.08" stroke-linecap="round"></path>
            <path d="M356.48,294 L215.07,294" id="Path-10" stroke="#D9A84E" stroke-width="2.08"></path>
            <path d="M436.77,330.2 C413.57,325 390.38,299.5 390.88,300.6 C407.38,336.4 444.08,357 472.98,341 C435.68,315.5 439.38,283.5 399.17,294 C398.27,294.3 397.27,294.5 396.27,294.8 C394.08,295.5 414.08,315.8 436.77,330.2 Z M375.77,294.8 C374.77,294.5 373.77,294.2 372.88,294 C332.58,283.5 336.38,315.5 299.08,341 C327.98,357 364.68,336.4 381.18,300.6 C381.68,299.4 358.48,325 335.28,330.2 C357.98,315.9 377.98,295.5 375.77,294.8 Z M390.48,316.4 L386,370.7 L381.5,316.4 C354.79,337.5 366.9,367.2 375.29,382.6 C383.68,398 386,410.3 386,410.3 C386,410.3 388.29,397.9 396.7,382.6 C405.11,367.3 417.29,337.5 390.5,316.4 L390.48,316.4 Z M422.27,361.8 C422.27,360.101259 421.246703,358.569786 419.67727,357.919706 C418.107838,357.269626 416.301343,357.62896 415.100152,358.830152 C413.89896,360.031343 413.539626,361.837838 414.189706,363.40727 C414.839786,364.976703 416.371259,366 418.07,366 C420.385047,365.989054 422.259054,364.115047 422.27,361.8 Z M358.38,361.8 C358.384047,360.09631 357.360883,358.558125 355.788038,357.903345 C354.215194,357.248565 352.40276,357.606282 351.196634,358.809543 C349.990508,360.012804 349.628482,361.824382 350.27952,363.398779 C350.930557,364.973176 352.466305,365.999995 354.17,366 C356.486696,365.989104 358.363595,364.116663 358.38,361.8 Z M431.38,351.8 C431.384046,349.691846 430.117239,347.789024 428.17072,346.979464 C426.2242,346.169903 423.981648,346.613177 422.489524,348.102436 C420.9974,349.591696 420.549819,351.833393 421.355638,353.781464 C422.161458,355.729536 424.061843,356.999996 426.17,357 C427.553302,357.010726 428.883206,356.466639 429.862317,355.489408 C430.841428,354.512176 431.388069,353.18332 431.38,351.8 Z M351.38,351.8 C351.384046,349.691846 350.117239,347.789024 348.17072,346.979464 C346.2242,346.169903 343.981648,346.613177 342.489524,348.102436 C340.9974,349.591696 340.549819,351.833393 341.355638,353.781464 C342.161458,355.729536 344.061843,356.999996 346.17,357 C347.553302,357.010726 348.883206,356.466639 349.862317,355.489408 C350.841428,354.512176 351.388069,353.18332 351.38,351.8 Z" id="Shape" fill="#D9A84E" fill-rule="nonzero"></path>
            <g id="Sheet-Scroller" transform="translate(207.000000, 153.000000)" fill="#527CA6" font-family="Apple-Chancery, Apple Chancery" font-size="64" font-weight="normal">
                <text>
                    <tspan x="0.796875" y="72">Sheet-Scroller</tspan>
                </text>
            </g>
        </g>
    </g>
</svg>