<svg xmlns="http://www.w3.org/2000/svg" viewBox="0 0 775.45 410.3"><defs><style>.cls-1,.cls-2,.cls-3,.cls-4{fill:none;stroke:#d9a84e;}.cls-1,.cls-2,.cls-3{stroke-linecap:round;}.cls-1{stroke-width:4.15px;}.cls-2{stroke-width:3.32px;}.cls-3,.cls-4{stroke-width:2.08px;}.cls-5{fill:#d9a84e;}</style></defs><title>Asset 3</title><g id="Layer_2" data-name="Layer 2"><g id="Layer_1-2" data-name="Layer 1"><g id="Page-1"><g id="Three-Leaf-Heading"><path id="Path-2" class="cls-1" d="M2.08,156h771.3"/><path id="Path-3" class="cls-2" d="M625.67,132H150.07"/><path id="Path-4" class="cls-3" d="M414.08,116h144"/><path id="Path-5" class="cls-4" d="M358.48,116H217.07"/><path class="cls-5" d="M398.27,115.5c1,.3,2,.6,2.9.8,40.3,10.5,36.5-21.5,73.8-47-28.9-16-65.6,4.6-82.1,40.4-.5,1.2,22.7-24.4,45.9-29.6-22.69,14.4-42.69,34.7-40.5,35.4Zm-61-35.3c23.21,5.1,46.4,30.7,45.9,29.6C366.67,74,330,53.4,301.07,69.4c37.3,25.5,33.6,57.4,73.81,47,.89-.3,1.89-.5,2.89-.8,2.21-.7-17.79-21.1-40.5-35.4Zm61.4-52.5C390.38,12.3,388,0,388,0s-2.3,12.4-10.71,27.7-20.5,45.1,6.21,66.2L388,39.6l4.5,54.3c26.79-21.1,14.6-50.8,6.19-66.2Zm21.5,16.7a4.2,4.2,0,1,0,4.21,4.2A4.23,4.23,0,0,0,420.17,44.4Zm-63.9,0a4.2,4.2,0,1,0,4.21,4.2A4.23,4.23,0,0,0,356.27,44.4Zm71.9,8.9a5.2,5.2,0,1,0,5.21,5.2A5.16,5.16,0,0,0,428.17,53.3Zm-80,0a5.2,5.2,0,1,0,5.21,5.2A5.16,5.16,0,0,0,348.17,53.3Z"/><path id="Path-7" class="cls-1" d="M773.38,255H2.08"/><path id="Path-8" class="cls-2" d="M625.67,278H150.07"/><path id="Path-9" class="cls-3" d="M558.08,294h-144"/><path id="Path-10" class="cls-4" d="M358.48,294H217.07"/><path class="cls-5" d="M438.77,330.2c-23.2-5.2-46.39-30.7-45.89-29.6,16.5,35.8,53.2,56.4,82.1,40.4-37.3-25.5-33.6-57.5-73.81-47-.9.3-1.9.5-2.9.8-2.19.7,17.81,21,40.5,35.4Zm-61-35.4c-1-.3-2-.6-2.89-.8-40.3-10.5-36.5,21.5-73.8,47,28.9,16,65.6-4.6,82.1-40.4.5-1.2-22.7,24.4-45.9,29.6,22.7-14.3,42.7-34.7,40.49-35.4Zm14.71,21.6L388,370.7l-4.5-54.3c-26.71,21.1-14.6,50.8-6.21,66.2S388,410.3,388,410.3s2.29-12.4,10.7-27.7,20.59-45.1-6.2-66.2Zm31.79,45.4a4.2,4.2,0,1,0-4.2,4.2A4.22,4.22,0,0,0,424.27,361.8Zm-63.89,0a4.21,4.21,0,1,0-4.21,4.2A4.23,4.23,0,0,0,360.38,361.8Zm73-10a5.21,5.21,0,1,0-5.21,5.2A5.17,5.17,0,0,0,433.38,351.8Zm-80,0a5.21,5.21,0,1,0-5.21,5.2A5.17,5.17,0,0,0,353.38,351.8Z"/></g></g></g></g></svg>