<svg xmlns="http://www.w3.org/2000/svg" viewBox="0 0 671.6 144.7"><defs><style>.cls-1,.cls-3{fill:#415b76;}.cls-1{stroke:#245069;stroke-linecap:round;stroke-width:3.65px;}.cls-2{fill:#d9a84e;}.cls-4{fill:none;}</style></defs><title>Asset 1</title><g id="Layer_2" data-name="Layer 2"><g id="Layer_1-2" data-name="Layer 1"><g id="Page-1"><path id="Path-30" class="cls-1" d="M105,72H566"/><path id="Path-31" class="cls-2" d="M66.8,114.6c4.3-19.4,25.5-38.7,24.6-38.2-29.8,13.7-47,44.3-33.6,68.3,21.2-31.1,47.8-27.9,39.1-61.5a21.72,21.72,0,0,0-.7-2.4C95.7,79,78.7,95.7,66.8,114.6ZM96.2,63.8a21.72,21.72,0,0,0,.7-2.4C105.6,27.9,79,31,57.8,0,44.4,24.1,61.6,54.6,91.4,68.3c1,.4-20.3-18.9-24.6-38.2C78.7,49,95.7,65.6,96.2,63.8Zm-18,12.3L33,72.4l45.2-3.7C60.7,46.4,35.9,56.6,23.1,63.5A87.61,87.61,0,0,1,0,72.3a90.48,90.48,0,0,1,23.1,8.9c12.8,7,37.6,17.1,55.1-5.1ZM40.5,102.6A3.54,3.54,0,0,0,44,99.1a3.5,3.5,0,1,0-3.5,3.5Zm0-53.3A3.54,3.54,0,0,0,44,45.8a3.48,3.48,0,0,0-3.5-3.5,3.5,3.5,0,0,0,0,7Zm8.3,60.8a4.3,4.3,0,1,0-4.3-4.3A4.21,4.21,0,0,0,48.8,110.1Zm0-66.6a4.3,4.3,0,1,0-4.3-4.3A4.21,4.21,0,0,0,48.8,43.5Z"/><path id="Path-32" class="cls-3" d="M349.9,71.9a12,12,0,1,0-12,12A12,12,0,0,0,349.9,71.9Z"/><path id="Path-33" class="cls-4" d="M337.8,57a15.8,15.8,0,1,0,15.8,15.8A15.83,15.83,0,0,0,337.8,57Zm0,7.6a8.2,8.2,0,1,1-8.2,8.2A8.24,8.24,0,0,1,337.8,64.6Z"/><path id="Path-34" class="cls-2" d="M575.4,80.8a21.72,21.72,0,0,0-.7,2.4c-8.7,33.5,17.9,30.4,39.1,61.5,13.4-24.1-3.8-54.6-33.6-68.3-1-.4,20.3,18.9,24.6,38.2C592.9,95.7,575.9,79,575.4,80.8Zm29.4-50.7c-4.3,19.3-25.6,38.6-24.6,38.2C610,54.6,627.2,24,613.8,0,592.6,31.1,566,27.9,574.7,61.4a21.72,21.72,0,0,0,.7,2.4C575.9,65.6,592.9,49,604.8,30.1Zm43.7,51.1a86.05,86.05,0,0,1,23.1-8.9,90.48,90.48,0,0,1-23.1-8.9c-12.8-7-37.6-17.1-55.1,5.2l45.2,3.7L593.4,76c17.5,22.3,42.3,12.2,55.1,5.2ZM634.6,99.1a3.48,3.48,0,0,0-3.5-3.5,3.54,3.54,0,0,0-3.5,3.5,3.5,3.5,0,1,0,7,0Zm0-53.2a3.5,3.5,0,1,0-7,0,3.42,3.42,0,0,0,3.5,3.5A3.54,3.54,0,0,0,634.6,45.9Zm-7.4,59.9a4.3,4.3,0,1,0-4.3,4.3A4.33,4.33,0,0,0,627.2,105.8Zm0-66.6a4.3,4.3,0,1,0-4.3,4.3A4.33,4.33,0,0,0,627.2,39.2Z"/><path id="Path-35" class="cls-3" d="M240.5,48.1c-6.9-4.5-15.5,1.5-14.2,9.4.6,3.8,6.5,2.2,5.9-1.6s4.6-3.8,6.2-1.5c1.8,2.4,1,5.6-.8,7.8-4.2,5-12,4.6-17.8,3.8-10.9-1.6-21.1-6.6-31.3-10.6-9.2-3.7-19.2-7-29.2-6.4a27.22,27.22,0,0,0-15.1-10.1,26.24,26.24,0,0,0-26.5,8.9,35.2,35.2,0,0,0-3,4.5,17.18,17.18,0,0,0-4.6,2.5c-5.2,4-7.6,10.1-9.8,15.9-1.4,3.7,4.5,5.2,5.9,1.6,1.6-4.1,3.2-8.5,6.4-11.6a9.15,9.15,0,0,0,.1,1.6c.6,4.5,3.9,8.6,8.6,9.2s8.7-3,9.7-7.4c1.1-4.8-1.8-9.3-6-11.4a14.26,14.26,0,0,0-2.7-.9,19.86,19.86,0,0,1,2.9-2.9,20.14,20.14,0,0,1,23.9-1.4,21,21,0,0,1,3.3,2.6,13.66,13.66,0,0,0-8,6.1c-1.9,3.6-2.1,8.4.6,11.6,6.4,7.6,17.5.3,17.8-8.1a13.48,13.48,0,0,0-.6-4.9,55.07,55.07,0,0,1,7.1.8c8.3,1.5,16.1,4.8,23.8,8S208.7,70,217,71.5c7.8,1.3,16.9,1.8,23.3-3.6C246.2,62.9,247.7,52.8,240.5,48.1ZM124.8,60.7a3.68,3.68,0,0,1-1.7,4.4c-2.8,1.3-4.6-2.4-4.6-4.6a10.32,10.32,0,0,1,.4-3C121.5,57.2,123.9,58,124.8,60.7Zm30.5,2.4c-1.2,1.3-3.9,2.5-5.4,1.1-4.2-3.6,2.8-8.1,5.7-8.8a.37.37,0,0,0,.3-.1,12.09,12.09,0,0,1,.5,1.8C156.8,59.1,156.8,61.5,155.3,63.1Zm84.9,13.2c-6.4-5.4-15.5-5-23.3-3.6-8.3,1.4-16.2,4.7-23.9,7.9s-15.5,6.5-23.8,8a41.71,41.71,0,0,1-7.1.8,19.93,19.93,0,0,0,.6-4.9c-.3-8.4-11.4-15.7-17.8-8.1-2.7,3.2-2.5,8.1-.6,11.6a13.66,13.66,0,0,0,8,6.1,21.58,21.58,0,0,1-3.3,2.7,20.42,20.42,0,0,1-26.8-4.3,14.26,14.26,0,0,0,2.7-.9,10.24,10.24,0,0,0,6-11.4c-1-4.4-5-8-9.7-7.4s-8,4.7-8.6,9.2a8.6,8.6,0,0,0-.1,1.6c-3.2-3.1-4.8-7.6-6.4-11.7-1.4-3.6-7.3-2.1-5.9,1.6,2.2,5.9,4.7,12,9.8,15.9a17.18,17.18,0,0,0,4.6,2.5,27.11,27.11,0,0,0,3,4.5,26,26,0,0,0,26.5,8.9,27.22,27.22,0,0,0,15.1-10.1c10,.6,20-2.8,29.2-6.4,10.2-4,20.3-9,31.3-10.6,5.8-.9,13.6-1.2,17.8,3.8,1.8,2.2,2.5,5.3.8,7.8-1.6,2.3-6.8,2.3-6.2-1.5s-5.2-5.5-5.9-1.6c-1.3,7.9,7.3,13.9,14.2,9.4C247.7,91.4,246.2,81.3,240.2,76.3ZM119,86.7a10.32,10.32,0,0,1-.4-3c0-2.2,1.8-5.9,4.6-4.6a3.68,3.68,0,0,1,1.7,4.4C123.9,86.2,121.5,87,119,86.7Zm37.4.4a12.09,12.09,0,0,1-.5,1.8.37.37,0,0,1-.3-.1c-2.9-.7-9.8-5.2-5.7-8.8,1.6-1.4,4.2-.2,5.4,1.1C156.8,82.7,156.8,85.1,156.4,87.1ZM430.2,67.9c6.4,5.4,15.5,5,23.3,3.6,8.3-1.4,16.2-4.7,23.9-7.9s15.5-6.5,23.8-8a41.71,41.71,0,0,1,7.1-.8,19.93,19.93,0,0,0-.6,4.9c.3,8.4,11.4,15.7,17.8,8.1,2.7-3.2,2.5-8.1.6-11.6a13.66,13.66,0,0,0-8-6.1,16.44,16.44,0,0,1,3.3-2.6,20.42,20.42,0,0,1,26.8,4.3,11.42,11.42,0,0,0-2.6.9c-4.3,2-7.2,6.6-6,11.4,1,4.4,5,8,9.7,7.4s8-4.7,8.6-9.2a8.6,8.6,0,0,0,.1-1.6c3.2,3.1,4.9,7.5,6.4,11.6,1.4,3.6,7.3,2.1,5.9-1.6-2.2-5.9-4.7-12-9.8-15.9a17.18,17.18,0,0,0-4.6-2.5,27.11,27.11,0,0,0-3-4.5,26,26,0,0,0-26.5-8.9A27.22,27.22,0,0,0,511.3,49c-10-.6-20,2.8-29.2,6.4-10.2,4-20.3,9-31.3,10.6-5.8.9-13.6,1.2-17.8-3.8-1.8-2.2-2.6-5.3-.8-7.8,1.6-2.3,6.8-2.3,6.2,1.5s5.2,5.5,5.9,1.6c1.3-7.9-7.3-13.9-14.2-9.4C422.7,52.8,424.3,62.9,430.2,67.9ZM551.5,57.5a10.32,10.32,0,0,1,.4,3c0,2.2-1.8,5.9-4.6,4.6a3.68,3.68,0,0,1-1.7-4.4C546.5,58,549,57.2,551.5,57.5ZM514,57.1a12.09,12.09,0,0,1,.5-1.8.37.37,0,0,1,.3.1c2.9.7,9.8,5.2,5.7,8.8-1.6,1.4-4.2.2-5.4-1.1C513.7,61.5,513.6,59.1,514,57.1ZM430,96.2c6.9,4.5,15.5-1.5,14.2-9.4-.6-3.8-6.5-2.2-5.9,1.6s-4.6,3.8-6.2,1.5-1-5.6.8-7.8c4.2-5,11.9-4.6,17.8-3.8,10.9,1.6,21.1,6.6,31.3,10.6,9.2,3.7,19.2,7,29.2,6.4a27.22,27.22,0,0,0,15.1,10.1,26.44,26.44,0,0,0,26.5-8.9,35.2,35.2,0,0,0,3-4.5,17.18,17.18,0,0,0,4.6-2.5c5.2-3.9,7.6-10.1,9.8-15.9,1.4-3.7-4.5-5.2-5.9-1.6-1.5,4.1-3.2,8.5-6.4,11.7a8.6,8.6,0,0,0-.1-1.6c-.6-4.5-3.9-8.6-8.6-9.2s-8.7,3-9.7,7.4c-1.1,4.8,1.8,9.3,6,11.4a16.14,16.14,0,0,0,2.6.9,19.86,19.86,0,0,1-2.9,2.9,20.14,20.14,0,0,1-23.9,1.4,20.55,20.55,0,0,1-3.3-2.7,14,14,0,0,0,8-6.1c2-3.6,2.1-8.4-.6-11.6-6.4-7.6-17.5-.3-17.8,8.1a13.48,13.48,0,0,0,.6,4.9,55.07,55.07,0,0,1-7.1-.8c-8.3-1.5-16.1-4.8-23.8-8s-15.6-6.4-23.9-7.9c-7.7-1.3-16.9-1.8-23.3,3.6C424.3,81.3,422.7,91.4,430,96.2ZM545.6,83.5a3.68,3.68,0,0,1,1.7-4.4c2.8-1.3,4.6,2.4,4.6,4.6a10.32,10.32,0,0,1-.4,3C549,87,546.5,86.2,545.6,83.5Zm-30.4-2.4c1.2-1.3,3.9-2.4,5.4-1.1,4.2,3.6-2.8,8.1-5.7,8.8a.37.37,0,0,0-.3.1,12.09,12.09,0,0,1-.5-1.8C513.6,85.1,513.7,82.7,515.2,81.1Z"/></g></g></g></svg>