<svg xmlns="http://www.w3.org/2000/svg" viewBox="0 0 671.6 144.8"><defs><style>.cls-1,.cls-3{fill:none;}.cls-1{stroke:#d9a84e;stroke-linecap:round;stroke-width:3.65px;}.cls-2{fill:#d9a84e;}</style></defs><title>Asset 2</title><g id="Layer_2" data-name="Layer 2"><g id="Layer_1-2" data-name="Layer 1"><g id="Page-1"><g id="Border"><path id="Path-23" class="cls-1" d="M566.1,72.1h-461"/><path id="Path-24" class="cls-2" d="M66.8,114.6C71.1,95.3,92.3,76,91.4,76.4c-29.8,13.7-47,44.3-33.6,68.3,21.2-31.1,47.8-27.9,39.1-61.5a21.72,21.72,0,0,0-.7-2.4C95.7,79.1,78.7,95.8,66.8,114.6ZM96.2,63.9a21.72,21.72,0,0,0,.7-2.4C105.6,28,79,31.1,57.8,0,44.4,24.1,61.6,54.6,91.4,68.3c1,.4-20.3-18.9-24.6-38.2C78.7,49.1,95.7,65.7,96.2,63.9Zm-18,12.3L33,72.5l45.2-3.7C60.7,46.5,35.9,56.7,23.1,63.6A87.61,87.61,0,0,1,0,72.4a90.48,90.48,0,0,1,23.1,8.9c12.8,7,37.6,17.1,55.1-5.1ZM40.5,102.6A3.54,3.54,0,0,0,44,99.1a3.48,3.48,0,0,0-3.5-3.5,3.5,3.5,0,0,0,0,7Zm0-53.2A3.48,3.48,0,0,0,44,45.9a3.42,3.42,0,0,0-3.5-3.5,3.5,3.5,0,0,0,0,7Zm8.3,60.8a4.3,4.3,0,1,0-4.3-4.3A4.21,4.21,0,0,0,48.8,110.2Zm0-66.6a4.3,4.3,0,1,0-4.3-4.3A4.27,4.27,0,0,0,48.8,43.6Z"/><path id="Path-25" class="cls-2" d="M348.9,72a12,12,0,1,0-12,12A12,12,0,0,0,348.9,72Z"/><path id="Path-26" class="cls-3" d="M336.8,57.1a15.8,15.8,0,1,0,15.8,15.8A15.83,15.83,0,0,0,336.8,57.1Zm0,7.6a8.2,8.2,0,1,1-8.2,8.2A8.24,8.24,0,0,1,336.8,64.7Z"/><path id="Path-27" class="cls-2" d="M141.4,49.6c-5.9-4.5-13.9-1.3-15.8,5.8-1,3.8,1.6,5,3.6,1.6,3.4-5.8,9.9-3.8,10.7,1.1,1,5.7-5.6,8.2-10.2,7.1-11.6-2.6-21.1-24-21.1-24-1.2-3.7-4.8-2.3-4.3,1.6a60.94,60.94,0,0,1-3,28.2c-1.3,3.7,4.5,5.3,5.9,1.6a65.57,65.57,0,0,0,3.7-16.2,46.75,46.75,0,0,0,8.6,9.7c6.2,5.2,15.3,8.2,22.2,2.3,5.6-4.9,5.9-14.1-.3-18.8Zm.2,26.1c-6.9-5.9-15.9-2.9-22.1,2.3a46.75,46.75,0,0,0-8.6,9.7,69.24,69.24,0,0,0-3.7-16.2c-1.3-3.7-7.2-2.1-5.9,1.6a59.79,59.79,0,0,1,3,28.2c-.5,3.9,3.1,5.3,4.3,1.6,0,0,9.5-21.4,21.1-24,4.6-1,11.2,1.4,10.2,7.1-.8,4.9-7.4,6.8-10.7,1.1-2-3.4-4.6-2.2-3.6,1.6,1.9,7.1,9.9,10.3,15.8,5.8,6.3-4.7,6-13.9.2-18.8Z"/><path id="Path-28" class="cls-2" d="M575.4,80.9a21.72,21.72,0,0,0-.7,2.4c-8.7,33.5,17.9,30.4,39.1,61.5,13.4-24.1-3.8-54.6-33.6-68.3-1-.4,20.3,18.9,24.6,38.2C592.9,95.8,575.9,79.1,575.4,80.9Zm29.4-50.7c-4.3,19.3-25.6,38.6-24.6,38.2C610,54.7,627.2,24.1,613.8.1,592.6,31.1,566,28,574.7,61.6a21.72,21.72,0,0,0,.7,2.4C575.9,65.7,592.9,49.1,604.8,30.2Zm43.7,51.1a86.05,86.05,0,0,1,23.1-8.9,86.05,86.05,0,0,1-23.1-8.9c-12.8-7-37.6-17.1-55.1,5.2l45.2,3.7-45.2,3.7c17.5,22.3,42.3,12.2,55.1,5.2ZM634.6,99.2a3.5,3.5,0,1,0-3.5,3.5A3.54,3.54,0,0,0,634.6,99.2Zm0-53.2a3.5,3.5,0,0,0-7,0,3.42,3.42,0,0,0,3.5,3.5A3.54,3.54,0,0,0,634.6,46Zm-7.4,59.9a4.3,4.3,0,1,0-4.3,4.3A4.33,4.33,0,0,0,627.2,105.9Zm0-66.6a4.3,4.3,0,1,0-4.3,4.3A4.33,4.33,0,0,0,627.2,39.3Z"/><path id="Path-29" class="cls-2" d="M530.5,68.4c6.9,5.8,15.9,2.9,22.2-2.3a46.75,46.75,0,0,0,8.6-9.7A69.24,69.24,0,0,0,565,72.6c1.3,3.7,7.2,2.1,5.9-1.6a59.79,59.79,0,0,1-3-28.2c.5-3.9-3.1-5.3-4.3-1.6,0,0-9.5,21.4-21.1,24-4.6,1-11.2-1.4-10.2-7.1.8-4.9,7.4-6.8,10.7-1.1,2,3.4,4.6,2.2,3.6-1.6-1.9-7-9.9-10.3-15.8-5.8-6.4,4.7-6.1,13.9-.3,18.8Zm.1,26.1c5.9,4.5,13.9,1.3,15.8-5.8,1-3.8-1.6-5-3.6-1.6-3.4,5.8-9.9,3.8-10.7-1.1-1-5.7,5.6-8.2,10.2-7.1,11.6,2.6,21.1,24,21.1,24,1.2,3.7,4.8,2.3,4.3-1.6a60.94,60.94,0,0,1,3-28.2c1.3-3.7-4.5-5.3-5.9-1.6a65.57,65.57,0,0,0-3.7,16.2,46.75,46.75,0,0,0-8.6-9.7c-6.2-5.2-15.3-8.2-22.2-2.3-5.6,4.9-5.9,14.1.3,18.8Z"/></g></g></g></g></svg>