<?xml version="1.0" encoding="UTF-8"?>
<svg width="1629px" height="1332px" viewBox="0 0 1629 1332" version="1.1" xmlns="http://www.w3.org/2000/svg" xmlns:xlink="http://www.w3.org/1999/xlink">
    <!-- Generator: Sketch 50.2 (55047) - http://www.bohemiancoding.com/sketch -->
    <title>Slice 1</title>
    <desc>Created with Sketch.</desc>
    <defs></defs>
    <g id="Page-1" stroke="none" stroke-width="1" fill="none" fill-rule="evenodd">
        <g id="03-Label-Frame-001-3-pdf" transform="translate(942.000000, 207.000000)">
            <g id="Border" transform="translate(15.000000, 832.000000)">
                <path d="M566.05,72 L105,72" id="Path-23" stroke="#000000" stroke-width="3.648" stroke-linecap="round"></path>
                <path d="M66.75,114.57 C71.04,95.26 92.32,75.93 91.35,76.37 C61.57,90.08 44.38,120.64 57.73,144.71 C78.94,113.66 105.55,116.77 96.84,83.26 C96.64,82.48 96.41,81.67 96.17,80.85 C95.63,79.04 78.67,95.71 66.75,114.57 Z M96.18,63.86 C96.43,63.04 96.65,62.23 96.85,61.45 C105.57,27.95 78.96,31.05 57.74,0 C44.39,24.07 61.58,54.63 91.36,68.34 C92.32,68.78 71.04,49.45 66.76,30.14 C78.68,49 95.65,65.67 96.18,63.86 Z M78.18,76.09 L32.99,72.35 L78.18,68.62 C60.65,46.36 35.89,56.5 23.09,63.45 C10.29,70.41 0,72.35 0,72.35 C0,72.35 10.3,74.3 23.09,81.25 C35.89,88.21 60.65,98.34 78.18,76.08 L78.18,76.09 Z M40.43,102.57 C42.34,102.57 43.89,101.02 43.89,99.11 C43.89,97.2 42.34,95.65 40.43,95.65 C38.52,95.65 36.97,97.2 36.97,99.11 C36.97,101.02 38.52,102.57 40.43,102.57 Z M40.43,49.36 C42.34,49.36 43.89,47.81 43.89,45.9 C43.89,43.99 42.34,42.44 40.43,42.44 C38.52,42.44 36.97,43.99 36.97,45.9 C36.97,47.81 38.52,49.36 40.43,49.36 Z M48.73,110.15 C51.12,110.15 53.07,108.21 53.07,105.81 C53.07,103.42 51.13,101.47 48.73,101.47 C46.34,101.47 44.39,103.41 44.39,105.81 C44.39,108.2 46.33,110.15 48.73,110.15 Z M48.73,43.53 C51.12,43.53 53.07,41.59 53.07,39.19 C53.07,36.8 51.13,34.85 48.73,34.85 C46.34,34.85 44.39,36.79 44.39,39.19 C44.39,41.58 46.33,43.53 48.73,43.53 Z" id="Path-24" fill="#000000" fill-rule="nonzero"></path>
                <path d="M348.92,71.96 C348.92,65.36 343.55,60 336.96,60 C330.36,60 325,65.37 325,71.96 C325,78.56 330.37,83.92 336.96,83.92 C343.56,83.92 348.92,78.55 348.92,71.96 Z" id="Path-25" fill="#211915" fill-rule="nonzero"></path>
                <path d="M336.77,57 C328.07,57 321,64.07 321,72.77 C321,81.45 328.07,88.53 336.77,88.53 C345.46,88.53 352.53,81.45 352.53,72.77 C352.53,64.07 345.46,57 336.77,57 Z M336.77,64.6 C341.27,64.6 344.93,68.26 344.93,72.77 C344.93,77.27 341.27,80.93 336.77,80.93 C332.26,80.93 328.6,77.27 328.6,72.77 C328.6,68.26 332.26,64.6 336.77,64.6 Z" id="Path-26" fill="#FFFFFF" fill-rule="nonzero"></path>
                <path d="M141.417204,49.4914887 C135.487204,44.9414887 127.537204,48.2414887 125.597204,55.3014887 C124.557204,59.0814887 127.207204,60.3014887 129.177204,56.9114887 C132.537204,51.1514887 139.077204,53.0614887 139.917204,58.0014887 C140.887204,63.7114887 134.357204,66.1814887 129.707204,65.1414887 C118.097204,62.5514887 108.577204,41.1814887 108.567204,41.1514887 C107.357204,37.4514887 103.747204,38.8714887 104.227204,42.7714887 C105.457204,52.9314887 104.287204,62.5014887 101.197204,71.0114887 C99.8572037,74.6914887 105.737204,76.2814887 107.057204,72.6314887 C108.977204,67.3614887 110.217204,61.9214887 110.787204,56.4014887 C113.197204,60.0014887 116.057204,63.2814887 119.377204,66.0514887 C125.617204,71.2514887 134.637204,74.2114887 141.527204,68.3614887 C147.317204,63.4514887 147.607204,54.2414887 141.407204,49.5014887 L141.417204,49.4914887 Z M141.537204,75.5914887 C134.647204,69.7414887 125.627204,72.6914887 119.387204,77.9014887 C116.067204,80.6714887 113.207204,83.9614887 110.797204,87.5514887 C110.227204,82.0314887 108.977204,76.5914887 107.067204,71.3214887 C105.737204,67.6714887 99.8672037,69.2514887 101.207204,72.9414887 C104.307204,81.4514887 105.467204,91.0214887 104.237204,101.181489 C103.767204,105.081489 107.377204,106.501489 108.577204,102.801489 C108.587204,102.771489 118.107204,81.4014887 129.717204,78.8114887 C134.357204,77.7714887 140.897204,80.2314887 139.927204,85.9514887 C139.087204,90.8914887 132.547204,92.8014887 129.187204,87.0414887 C127.217204,83.6614887 124.557204,84.8814887 125.607204,88.6514887 C127.547204,95.7014887 135.497204,99.0014887 141.427204,94.4614887 C147.627204,89.7114887 147.327204,80.5114887 141.547204,75.6014887 L141.537204,75.5914887 Z" id="Path-27" fill="#211915" fill-rule="nonzero"></path>
                <path d="M575.370268,80.85 C575.120268,81.67 574.900268,82.48 574.700268,83.26 C565.980268,116.76 592.590268,113.66 613.810268,144.71 C627.160268,120.64 609.970268,90.08 580.190268,76.37 C579.230268,75.93 600.510268,95.26 604.790268,114.57 C592.870268,95.71 575.900268,79.04 575.370268,80.85 Z M604.790268,30.14 C600.500268,49.45 579.220268,68.78 580.190268,68.34 C609.970268,54.63 627.160268,24.07 613.810268,0 C592.600268,31.05 565.990268,27.94 574.700268,61.45 C574.900268,62.23 575.130268,63.04 575.370268,63.86 C575.910268,65.67 592.870268,49 604.790268,30.14 Z M648.450268,81.26 C661.250268,74.3 671.540268,72.36 671.540268,72.36 C671.540268,72.36 661.240268,70.41 648.450268,63.46 C635.650268,56.5 610.890268,46.37 593.360268,68.63 L638.550268,72.36 L593.360268,76.1 C610.890268,98.36 635.650268,88.22 648.450268,81.27 L648.450268,81.26 Z M634.580268,99.11 C634.580268,97.2 633.030268,95.65 631.120268,95.65 C629.210268,95.65 627.660268,97.2 627.660268,99.11 C627.660268,101.02 629.210268,102.57 631.120268,102.57 C633.030268,102.57 634.580268,101.02 634.580268,99.11 Z M634.580268,45.89 C634.580268,43.98 633.030268,42.43 631.120268,42.43 C629.210268,42.43 627.660268,43.98 627.660268,45.89 C627.660268,47.8 629.210268,49.35 631.120268,49.35 C633.030268,49.35 634.580268,47.8 634.580268,45.89 Z M627.150268,105.81 C627.150268,103.42 625.210268,101.47 622.810268,101.47 C620.420268,101.47 618.470268,103.41 618.470268,105.81 C618.470268,108.2 620.410268,110.15 622.810268,110.15 C625.200268,110.15 627.150268,108.21 627.150268,105.81 Z M627.150268,39.19 C627.150268,36.8 625.210268,34.85 622.810268,34.85 C620.420268,34.85 618.470268,36.79 618.470268,39.19 C618.470268,41.58 620.410268,43.53 622.810268,43.53 C625.200268,43.53 627.150268,41.59 627.150268,39.19 Z" id="Path-28" fill="#000000" fill-rule="nonzero"></path>
                <path d="M530.442753,68.3614887 C537.332753,74.2114887 546.352753,71.2614887 552.592753,66.0514887 C555.912753,63.2814887 558.772753,59.9914887 561.182753,56.4014887 C561.752753,61.9214887 563.002753,67.3614887 564.912753,72.6314887 C566.242753,76.2814887 572.112753,74.7014887 570.772753,71.0114887 C567.672753,62.5014887 566.512753,52.9314887 567.742753,42.7714887 C568.212753,38.8714887 564.602753,37.4514887 563.402753,41.1514887 C563.392753,41.1814887 553.872753,62.5514887 542.262753,65.1414887 C537.622753,66.1814887 531.082753,63.7214887 532.052753,58.0014887 C532.892753,53.0614887 539.432753,51.1514887 542.792753,56.9114887 C544.762753,60.2914887 547.422753,59.0714887 546.372753,55.3014887 C544.432753,48.2514887 536.482753,44.9514887 530.552753,49.4914887 C524.352753,54.2414887 524.652753,63.4414887 530.432753,68.3514887 L530.442753,68.3614887 Z M530.552753,94.4514887 C536.482753,99.0014887 544.432753,95.7014887 546.372753,88.6414887 C547.412753,84.8614887 544.762753,83.6414887 542.792753,87.0314887 C539.432753,92.7914887 532.892753,90.8814887 532.052753,85.9414887 C531.082753,80.2314887 537.612753,77.7614887 542.262753,78.8014887 C553.872753,81.3914887 563.392753,102.761489 563.402753,102.791489 C564.612753,106.491489 568.222753,105.071489 567.742753,101.171489 C566.512753,91.0114887 567.682753,81.4414887 570.772753,72.9314887 C572.112753,69.2514887 566.232753,67.6614887 564.912753,71.3114887 C562.992753,76.5814887 561.752753,82.0214887 561.182753,87.5414887 C558.772753,83.9414887 555.912753,80.6614887 552.592753,77.8914887 C546.352753,72.6914887 537.332753,69.7314887 530.442753,75.5814887 C524.652753,80.4914887 524.362753,89.7014887 530.562753,94.4414887 L530.552753,94.4514887 Z" id="Path-29" fill="#211915" fill-rule="nonzero"></path>
            </g>
            <path d="M105,72.3097369 L566.05,72.3097369" id="Path-30" stroke="#000000" stroke-width="3.648" stroke-linecap="round"></path>
            <path d="M66.75,114.889737 C71.04,95.5797369 92.32,76.2497369 91.35,76.6897369 C61.57,90.3997369 44.38,120.959737 57.73,145.029737 C78.94,113.979737 105.55,117.089737 96.84,83.5797369 C96.64,82.7997369 96.41,81.9897369 96.17,81.1697369 C95.63,79.3597369 78.67,96.0297369 66.75,114.889737 Z M96.18,64.1697369 C96.43,63.3497369 96.65,62.5397369 96.85,61.7597369 C105.57,28.2597369 78.96,31.3597369 57.74,0.30973692 C44.39,24.3797369 61.58,54.9397369 91.36,68.6497369 C92.32,69.0897369 71.04,49.7597369 66.76,30.4497369 C78.68,49.3097369 95.65,65.9797369 96.18,64.1697369 Z M78.18,76.3997369 L32.99,72.6597369 L78.18,68.9297369 C60.65,46.6697369 35.89,56.8097369 23.09,63.7597369 C10.29,70.7197369 0,72.6597369 0,72.6597369 C0,72.6597369 10.3,74.6097369 23.09,81.5597369 C35.89,88.5197369 60.65,98.6497369 78.18,76.3897369 L78.18,76.3997369 Z M40.43,102.889737 C42.34,102.889737 43.89,101.339737 43.89,99.4297369 C43.89,97.5197369 42.34,95.9697369 40.43,95.9697369 C38.52,95.9697369 36.97,97.5197369 36.97,99.4297369 C36.97,101.339737 38.52,102.889737 40.43,102.889737 Z M40.43,49.6697369 C42.34,49.6697369 43.89,48.1197369 43.89,46.2097369 C43.89,44.2997369 42.34,42.7497369 40.43,42.7497369 C38.52,42.7497369 36.97,44.2997369 36.97,46.2097369 C36.97,48.1197369 38.52,49.6697369 40.43,49.6697369 Z M48.73,110.459737 C51.12,110.459737 53.07,108.519737 53.07,106.119737 C53.07,103.729737 51.13,101.779737 48.73,101.779737 C46.34,101.779737 44.39,103.719737 44.39,106.119737 C44.39,108.509737 46.33,110.459737 48.73,110.459737 Z M48.73,43.8397369 C51.12,43.8397369 53.07,41.8997369 53.07,39.4997369 C53.07,37.1097369 51.13,35.1597369 48.73,35.1597369 C46.34,35.1597369 44.39,37.0997369 44.39,39.4997369 C44.39,41.8897369 46.33,43.8397369 48.73,43.8397369 Z" id="Path-31" fill="#000000" fill-rule="nonzero"></path>
            <path d="M349.92,72.2697369 C349.92,65.6697369 344.56,60.3097369 337.96,60.3097369 C331.36,60.3097369 326,65.6797369 326,72.2697369 C326,78.8697369 331.37,84.2297369 337.96,84.2297369 C344.56,84.2297369 349.92,78.8697369 349.92,72.2697369 Z" id="Path-32" fill="#211915" fill-rule="nonzero"></path>
            <path d="M337.76,57.3097369 C329.07,57.3097369 322,64.3797369 322,73.0697369 C322,81.7597369 329.07,88.8297369 337.76,88.8297369 C346.45,88.8297369 353.52,81.7597369 353.52,73.0697369 C353.52,64.3797369 346.45,57.3097369 337.76,57.3097369 Z M337.76,64.9097369 C342.27,64.9097369 345.92,68.5597369 345.92,73.0697369 C345.92,77.5797369 342.27,81.2297369 337.76,81.2297369 C333.25,81.2297369 329.6,77.5797369 329.6,73.0697369 C329.6,68.5597369 333.25,64.9097369 337.76,64.9097369 Z" id="Path-33" fill="#FFFFFF" fill-rule="nonzero"></path>
            <path d="M575.370268,81.1697369 C575.120268,81.9897369 574.900268,82.7997369 574.700268,83.5797369 C565.980268,117.079737 592.590268,113.979737 613.810268,145.029737 C627.160268,120.959737 609.970268,90.3997369 580.190268,76.6897369 C579.230268,76.2497369 600.510268,95.5797369 604.790268,114.889737 C592.870268,96.0297369 575.900268,79.3597369 575.370268,81.1697369 Z M604.790268,30.4497369 C600.500268,49.7597369 579.220268,69.0897369 580.190268,68.6497369 C609.970268,54.9397369 627.160268,24.3797369 613.810268,0.30973692 C592.600268,31.3597369 565.990268,28.2497369 574.700268,61.7597369 C574.900268,62.5397369 575.130268,63.3497369 575.370268,64.1697369 C575.910268,65.9797369 592.870268,49.3097369 604.790268,30.4497369 Z M648.450268,81.5697369 C661.250268,74.6097369 671.540268,72.6697369 671.540268,72.6697369 C671.540268,72.6697369 661.240268,70.7197369 648.450268,63.7697369 C635.650268,56.8097369 610.890268,46.6797369 593.360268,68.9397369 L638.550268,72.6697369 L593.360268,76.4097369 C610.890268,98.6697369 635.650268,88.5297369 648.450268,81.5797369 L648.450268,81.5697369 Z M634.580268,99.4297369 C634.580268,97.5197369 633.030268,95.9697369 631.120268,95.9697369 C629.210268,95.9697369 627.660268,97.5197369 627.660268,99.4297369 C627.660268,101.339737 629.210268,102.889737 631.120268,102.889737 C633.030268,102.889737 634.580268,101.339737 634.580268,99.4297369 Z M634.580268,46.2097369 C634.580268,44.2997369 633.030268,42.7497369 631.120268,42.7497369 C629.210268,42.7497369 627.660268,44.2997369 627.660268,46.2097369 C627.660268,48.1197369 629.210268,49.6697369 631.120268,49.6697369 C633.030268,49.6697369 634.580268,48.1197369 634.580268,46.2097369 Z M627.150268,106.129737 C627.150268,103.739737 625.210268,101.789737 622.810268,101.789737 C620.420268,101.789737 618.470268,103.729737 618.470268,106.129737 C618.470268,108.519737 620.410268,110.469737 622.810268,110.469737 C625.200268,110.469737 627.150268,108.529737 627.150268,106.129737 Z M627.150268,39.5097369 C627.150268,37.1197369 625.210268,35.1697369 622.810268,35.1697369 C620.420268,35.1697369 618.470268,37.1097369 618.470268,39.5097369 C618.470268,41.8997369 620.410268,43.8497369 622.810268,43.8497369 C625.200268,43.8497369 627.150268,41.9097369 627.150268,39.5097369 Z" id="Path-34" fill="#000000" fill-rule="nonzero"></path>
            <path d="M240.431331,48.3861344 C233.551331,43.8661344 224.961331,49.8861344 226.231331,57.7561344 C226.841331,61.6061344 232.711331,59.9761344 232.091331,56.1461344 C231.481331,52.3261344 236.671331,52.3961344 238.281331,54.6661344 C240.031331,57.1061344 239.291331,60.2561344 237.481331,62.4261344 C233.311331,67.3961344 225.531331,67.0561344 219.721331,66.1961344 C208.771331,64.5661344 198.641331,59.6461344 188.441331,55.5961344 C179.241331,51.9461344 169.241331,48.6261344 159.211331,49.1861344 C155.631331,44.1761344 149.801331,40.4761344 144.141331,39.0661344 C134.401331,36.6261344 123.941331,40.2161344 117.631331,48.0061344 C116.511331,49.3861344 115.491331,50.9061344 114.651331,52.5361344 C113.011331,53.1061344 111.451331,53.9661344 110.031331,55.0461344 C104.871331,58.9961344 102.441331,65.0961344 100.211331,70.9961344 C98.8213308,74.6561344 104.691331,76.2361344 106.071331,72.6061344 C107.631331,68.5061344 109.271331,64.0761344 112.481331,60.9561344 C112.491331,61.4861344 112.521331,62.0061344 112.591331,62.5361344 C113.201331,66.9961344 116.541331,71.1161344 121.161331,71.7161344 C125.881331,72.3161344 129.841331,68.7361344 130.861331,64.2961344 C131.961331,59.4861344 129.091331,54.9661344 124.821331,52.9161344 C123.951331,52.5061344 123.061331,52.2061344 122.161331,52.0061344 C123.061331,50.9061344 124.051331,49.9161344 125.041331,49.0861344 C131.851331,43.3661344 141.551331,42.8661344 148.971331,47.7261344 C150.121331,48.4761344 151.231331,49.3661344 152.241331,50.3761344 C148.961331,51.4561344 145.991331,53.3561344 144.271331,56.4761344 C142.321331,60.0361344 142.131331,64.8761344 144.861331,68.1061344 C151.271331,75.6961344 162.371331,68.4161344 162.681331,60.0161344 C162.741331,58.3361344 162.541331,56.7161344 162.111331,55.1561344 C164.531331,55.2361344 166.951331,55.5561344 169.221331,55.9761344 C177.481331,57.4961344 185.281331,60.7961344 193.001331,63.9761344 C200.771331,67.1661344 208.621331,70.4161344 216.931331,71.8661344 C224.681331,73.2161344 233.821331,73.6461344 240.201331,68.2361344 C246.131331,63.2061344 247.671331,53.1461344 240.431331,48.3861344 Z M124.811331,61.0661344 C125.331331,62.6361344 124.741331,64.7361344 123.141331,65.4561344 C120.351331,66.7061344 118.581331,63.0461344 118.531331,60.8261344 C118.511331,59.8261344 118.671331,58.8261344 118.951331,57.8461344 C121.451331,57.5561344 123.891331,58.3061344 124.811331,61.0661344 Z M155.251331,63.4461344 C154.011331,64.7661344 151.391331,65.8961344 149.811331,64.5361344 C145.651331,60.9461344 152.581331,56.4361344 155.481331,55.7361344 C155.591331,55.7161344 155.711331,55.6961344 155.821331,55.6761344 C156.051331,56.2461344 156.231331,56.8361344 156.361331,57.4361344 C156.801331,59.4761344 156.761331,61.8361344 155.251331,63.4461344 Z M240.201331,76.6361344 C233.821331,71.2261344 224.681331,71.6561344 216.931331,73.0061344 C208.621331,74.4561344 200.761331,77.7061344 193.001331,80.8961344 C185.281331,84.0761344 177.481331,87.3761344 169.221331,88.8961344 C166.951331,89.3161344 164.521331,89.6461344 162.111331,89.7161344 C162.531331,88.1561344 162.751331,86.5361344 162.681331,84.8561344 C162.371331,76.4561344 151.271331,69.1761344 144.861331,76.7661344 C142.131331,79.9961344 142.321331,84.8361344 144.271331,88.3961344 C145.991331,91.5161344 148.961331,93.4161344 152.241331,94.4961344 C151.231331,95.5061344 150.121331,96.3961344 148.971331,97.1461344 C141.551331,102.006134 131.851331,101.506134 125.041331,95.7861344 C124.051331,94.9561344 123.061331,93.9661344 122.161331,92.8661344 C123.061331,92.6661344 123.951331,92.3661344 124.821331,91.9561344 C129.091331,89.9061344 131.961331,85.3861344 130.861331,80.5761344 C129.841331,76.1361344 125.881331,72.5561344 121.161331,73.1561344 C116.541331,73.7561344 113.201331,77.8761344 112.591331,82.3361344 C112.521331,82.8661344 112.491331,83.3961344 112.481331,83.9161344 C109.271331,80.7961344 107.631331,76.3661344 106.071331,72.2661344 C104.701331,68.6361344 98.8213308,70.2161344 100.211331,73.8761344 C102.451331,79.7761344 104.871331,85.8761344 110.031331,89.8261344 C111.451331,90.9061344 113.011331,91.7661344 114.651331,92.3461344 C115.491331,93.9661344 116.511331,95.4861344 117.631331,96.8661344 C123.941331,104.656134 134.401331,108.246134 144.141331,105.806134 C149.801331,104.396134 155.631331,100.696134 159.211331,95.6861344 C169.251331,96.2461344 179.241331,92.9261344 188.451331,89.2761344 C198.641331,85.2261344 208.771331,80.3061344 219.721331,78.6761344 C225.531331,77.8161344 233.311331,77.4761344 237.481331,82.4461344 C239.301331,84.6161344 240.031331,87.7661344 238.281331,90.2061344 C236.671331,92.4761344 231.481331,92.5461344 232.091331,88.7261344 C232.711331,84.8961344 226.851331,83.2661344 226.231331,87.1161344 C224.961331,94.9861344 233.551331,101.006134 240.431331,96.4861344 C247.671331,91.7261344 246.131331,81.6661344 240.201331,76.6361344 Z M118.951331,87.0261344 C118.671331,86.0461344 118.511331,85.0461344 118.531331,84.0461344 C118.571331,81.8261344 120.351331,78.1661344 123.141331,79.4161344 C124.741331,80.1361344 125.331331,82.2461344 124.811331,83.8061344 C123.891331,86.5661344 121.451331,87.3161344 118.951331,87.0261344 Z M156.361331,87.4361344 C156.231331,88.0361344 156.051331,88.6261344 155.821331,89.1961344 C155.711331,89.1761344 155.591331,89.1561344 155.481331,89.1361344 C152.581331,88.4461344 145.651331,83.9261344 149.811331,80.3361344 C151.391331,78.9761344 154.011331,80.1061344 155.251331,81.4261344 C156.761331,83.0361344 156.801331,85.3961344 156.361331,87.4361344 Z M430.171331,68.2361344 C436.561331,73.6461344 445.701331,73.2161344 453.441331,71.8661344 C461.751331,70.4161344 469.611331,67.1661344 477.371331,63.9761344 C485.101331,60.7961344 492.901331,57.4961344 501.151331,55.9761344 C503.431331,55.5561344 505.851331,55.2261344 508.271331,55.1561344 C507.841331,56.7161344 507.631331,58.3361344 507.691331,60.0161344 C508.011331,68.4161344 519.111331,75.6961344 525.521331,68.1061344 C528.241331,64.8761344 528.061331,60.0361344 526.101331,56.4761344 C524.381331,53.3561344 521.411331,51.4561344 518.141331,50.3761344 C519.151331,49.3661344 520.261331,48.4761344 521.401331,47.7261344 C528.831331,42.8661344 538.531331,43.3661344 545.341331,49.0861344 C546.321331,49.9161344 547.311331,50.9061344 548.211331,52.0061344 C547.321331,52.2061344 546.431331,52.5061344 545.561331,52.9161344 C541.281331,54.9661344 538.411331,59.4861344 539.521331,64.2961344 C540.541331,68.7361344 544.501331,72.3161344 549.211331,71.7161344 C553.831331,71.1161344 557.181331,66.9961344 557.781331,62.5361344 C557.851331,62.0061344 557.891331,61.4761344 557.901331,60.9561344 C561.101331,64.0761344 562.751331,68.5061344 564.301331,72.6061344 C565.681331,76.2361344 571.561331,74.6561344 570.171331,70.9961344 C567.931331,65.0961344 565.511331,58.9961344 560.341331,55.0461344 C558.931331,53.9661344 557.361331,53.1061344 555.731331,52.5261344 C554.891331,50.9061344 553.861331,49.3861344 552.751331,48.0061344 C546.441331,40.2161344 535.981331,36.6261344 526.241331,39.0661344 C520.581331,40.4761344 514.751331,44.1761344 511.171331,49.1861344 C501.131331,48.6261344 491.131331,51.9461344 481.931331,55.5961344 C471.741331,59.6461344 461.601331,64.5661344 450.651331,66.1961344 C444.841331,67.0561344 437.061331,67.3961344 432.901331,62.4261344 C431.081331,60.2561344 430.351331,57.1061344 432.091331,54.6661344 C433.711331,52.3961344 438.901331,52.3261344 438.291331,56.1461344 C437.671331,59.9761344 443.531331,61.6061344 444.151331,57.7561344 C445.421331,49.8861344 436.831331,43.8661344 429.951331,48.3861344 C422.701331,53.1461344 424.241331,63.2061344 430.171331,68.2361344 Z M551.431331,57.8461344 C551.711331,58.8261344 551.871331,59.8261344 551.851331,60.8261344 C551.801331,63.0461344 550.031331,66.7061344 547.241331,65.4561344 C545.641331,64.7361344 545.041331,62.6261344 545.571331,61.0661344 C546.491331,58.3061344 548.931331,57.5561344 551.431331,57.8461344 Z M514.011331,57.4361344 C514.141331,56.8361344 514.331331,56.2461344 514.551331,55.6761344 C514.671331,55.6961344 514.791331,55.7161344 514.901331,55.7361344 C517.791331,56.4261344 524.731331,60.9461344 520.571331,64.5361344 C518.991331,65.8961344 516.361331,64.7661344 515.131331,63.4461344 C513.621331,61.8361344 513.571331,59.4761344 514.011331,57.4361344 Z M429.951331,96.4861344 C436.831331,101.006134 445.421331,94.9861344 444.151331,87.1161344 C443.531331,83.2661344 437.671331,84.8961344 438.291331,88.7261344 C438.901331,92.5461344 433.711331,92.4761344 432.091331,90.2061344 C430.351331,87.7661344 431.081331,84.6161344 432.901331,82.4461344 C437.061331,77.4761344 444.841331,77.8161344 450.651331,78.6761344 C461.601331,80.3061344 471.741331,85.2261344 481.931331,89.2761344 C491.131331,92.9261344 501.131331,96.2461344 511.171331,95.6861344 C514.751331,100.696134 520.581331,104.396134 526.241331,105.806134 C535.981331,108.246134 546.431331,104.656134 552.751331,96.8661344 C553.861331,95.4861344 554.891331,93.9661344 555.731331,92.3461344 C557.361331,91.7661344 558.931331,90.9061344 560.341331,89.8261344 C565.511331,85.8761344 567.931331,79.7761344 570.171331,73.8761344 C571.561331,70.2161344 565.681331,68.6361344 564.301331,72.2661344 C562.751331,76.3661344 561.101331,80.7961344 557.901331,83.9161344 C557.891331,83.3961344 557.851331,82.8661344 557.781331,82.3361344 C557.181331,77.8761344 553.831331,73.7561344 549.211331,73.1561344 C544.501331,72.5561344 540.541331,76.1361344 539.521331,80.5761344 C538.411331,85.3861344 541.281331,89.9061344 545.561331,91.9561344 C546.431331,92.3661344 547.321331,92.6661344 548.211331,92.8661344 C547.311331,93.9661344 546.321331,94.9561344 545.341331,95.7861344 C538.531331,101.506134 528.831331,102.006134 521.401331,97.1461344 C520.261331,96.3961344 519.151331,95.5061344 518.141331,94.4961344 C521.411331,93.4161344 524.381331,91.5161344 526.101331,88.3961344 C528.061331,84.8361344 528.241331,79.9961344 525.521331,76.7661344 C519.111331,69.1761344 508.011331,76.4561344 507.691331,84.8561344 C507.631331,86.5361344 507.841331,88.1561344 508.271331,89.7161344 C505.851331,89.6461344 503.431331,89.3161344 501.151331,88.8961344 C492.901331,87.3761344 485.101331,84.0761344 477.371331,80.8961344 C469.611331,77.7061344 461.751331,74.4561344 453.441331,73.0061344 C445.701331,71.6561344 436.551331,71.2261344 430.171331,76.6361344 C424.241331,81.6661344 422.701331,91.7261344 429.951331,96.4861344 Z M545.571331,83.8061344 C545.041331,82.2461344 545.641331,80.1361344 547.241331,79.4161344 C550.031331,78.1661344 551.801331,81.8261344 551.851331,84.0461344 C551.871331,85.0461344 551.711331,86.0461344 551.431331,87.0261344 C548.931331,87.3161344 546.491331,86.5661344 545.571331,83.8061344 Z M515.131331,81.4261344 C516.361331,80.1061344 518.991331,78.9761344 520.571331,80.3361344 C524.731331,83.9261344 517.791331,88.4461344 514.901331,89.1361344 C514.791331,89.1561344 514.671331,89.1761344 514.551331,89.1961344 C514.331331,88.6261344 514.141331,88.0361344 514.011331,87.4361344 C513.571331,85.3961344 513.621331,83.0361344 515.131331,81.4261344 Z" id="Path-35" fill="#211915" fill-rule="nonzero"></path>
        </g>
        <g id="Laurel-Wreath" transform="translate(45.000000, 1.000000)" fill="#000000" stroke="#979797">
            <path d="M213.39,437.03 C220.31,462.97 250.29,487.96 248.96,487.42 C207.78,470.54 182.7,430.09 199.42,396.67 C229.98,437.55 265.9,431.8 256.02,477.75 C255.78,478.83 255.53,479.93 255.24,481.07 C254.62,483.55 230.64,461.92 213.39,437.03 Z" id="Path-1-path"></path>
            <path d="M175.61,522.72 C201.4,507.93 244.41,512 242.95,511.38 C197.57,492.18 146.23,504.01 133,543.21 C188.96,535.35 212.45,568.05 240.85,524.46 C241.52,523.45 242.18,522.38 242.85,521.28 C244.32,518.85 208.62,516.87 175.61,522.72 Z" id="Path-1-path"></path>
            <path d="M332.13,492.8 C324.71,483.9 313.24,482.85 302.55,485.12 C296.2,486.46 290.55,487.84 283.95,487.37 C277.08,486.89 270.26,485.27 263.84,482.82 C262.17,482.18 260.52,481.48 258.89,480.74 C268.49,488.75 276.66,491.87 287.39,493.34 C273.14,499.91 255.4,508.64 244,527.96 C256.08,517.24 269.93,508.79 284.24,501.4 C294.95,495.87 308.22,485.73 320.94,491.61 C329.67,495.64 334.22,507.33 329.58,515.97 C328.52,517.93 327.04,519.62 325.26,520.96 C318.03,526.43 304.27,523.2 303.79,512.85 C303.58,508.57 307.08,505.3 311.34,504.56 C323.43,502.44 325.32,517.41 325.42,513.47 C325.71,502.97 314.98,494.91 305.22,500.09 C294.84,505.6 296.02,519.6 304.87,526.01 C313.58,532.31 325.95,530.49 332.68,522.23 C339.68,513.65 339.13,501.18 332.13,492.8 Z" id="Path-1-path"></path>
            <path d="M156.7,402.43 C155.36,426.91 174.29,457.07 173.29,456.23 C142.34,429.92 132.04,387.73 156.01,363.46 C170.94,407.59 203.74,412.77 182.15,449.83 C181.64,450.7 181.11,451.58 180.54,452.48 C179.29,454.47 164.62,428.91 156.7,402.43 Z" id="Path-1-path"></path>
            <path d="M112.25,472.76 C137.56,466.76 172.63,480.87 171.55,479.98 C138.26,452.6 92.25,449.77 71.42,479.36 C120.31,486.68 131.89,519.94 166.54,490.43 C167.35,489.74 168.18,489.02 169.01,488.25 C170.85,486.58 141.4,476.06 112.25,472.76 Z" id="Path-1-path"></path>
            <path d="M117.99,351.45 C110.68,372.78 119.89,404.21 119.22,403.21 C98.41,372.19 99.85,332.27 127.13,316.8 C129.31,359.58 157.03,372.37 128.66,399.77 C127.99,400.41 127.3,401.06 126.57,401.71 C124.97,403.16 118.38,376.87 117.99,351.45 Z" id="Path-1-path"></path>
            <path d="M59.72,407.38 C86.27,411.12 114.63,437.84 113.94,436.58 C92.26,397.79 49.16,377.8 18.05,398.37 C62.23,423.76 60.85,460.04 105.2,444.73 C106.23,444.37 107.3,443.99 108.38,443.57 C110.78,442.65 86.46,421.49 59.72,407.38 Z" id="Path-1-path"></path>
            <path d="M97.13,300.5 C85.3,316.58 84.75,345.59 84.44,344.56 C75.08,312.83 86.89,279.48 114.04,273.64 C104.54,310.37 124.57,328.52 93.33,344.15 C92.6,344.52 91.85,344.88 91.05,345.24 C89.32,346.04 90.72,322.08 97.13,300.5 Z" id="Path-1-path"></path>
            <path d="M33.51,336.07 C55.34,345.7 73.16,375.44 72.87,374.2 C63.7,335.74 31.62,308.19 0,318.29 C31.71,350.71 21.75,381.45 63.41,379.06 C64.4,379.01 65.4,378.93 66.43,378.83 C68.7,378.63 52.99,354.62 33.51,336.07 Z" id="Path-1-path"></path>
            <path d="M87.98,245.75 C73.43,257.78 66.25,284.26 66.21,283.25 C64.92,252 83.42,224.11 109.67,225 C92.51,256.51 106.71,277.77 74.45,284.93 C73.7,285.1 72.92,285.25 72.11,285.4 C70.34,285.74 77.14,264.07 87.98,245.75 Z" id="Path-1-path"></path>
            <path d="M25.29,265.12 C42.01,278.11 50.97,307.54 50.98,306.41 C51.35,271.32 29.66,240.71 0.27,242.61 C20.59,277.34 5.4,301.66 41.8,308.57 C42.65,308.73 43.53,308.88 44.44,309.02 C46.44,309.33 38.08,285.29 25.29,265.12 Z" id="Path-1-path"></path>
            <path d="M91.46,197.47 C76.9,204.36 65.39,224.74 65.56,223.9 C71.07,197.79 92.23,178.62 113.75,184.87 C92.94,207.32 100.21,227.88 72.03,227.02 C71.37,227 70.69,226.96 70,226.93 C68.46,226.83 78.63,210.34 91.46,197.47 Z" id="Path-1-path"></path>
            <path d="M35.01,201 C46.69,215.6 48.32,242.74 48.56,241.77 C56.12,211.7 43.81,180.92 18.14,176.48 C28.44,210.51 10.38,228.28 40.22,241.72 C40.92,242.04 41.65,242.36 42.4,242.67 C44.05,243.35 41.83,220.96 35.01,201 Z" id="Path-1-path"></path>
            <path d="M110.12,156.26 C95.92,158.99 81.36,174.13 81.7,173.43 C92.34,151.97 115.02,140.05 132.33,150.31 C109.2,165.15 110.91,184.65 86.62,177.59 C86.05,177.42 85.47,177.24 84.87,177.05 C83.56,176.62 96.1,164.58 110.12,156.26 Z" id="Path-1-path"></path>
            <path d="M128.69,119.32 C114.61,120.94 99.25,134.66 99.63,134.01 C111.63,113.81 134.69,103.84 150.84,115.15 C127.14,127.95 127.37,147.14 104.15,138.43 C103.6,138.23 103.05,138.02 102.47,137.78 C101.22,137.26 114.37,126.41 128.69,119.32 Z" id="Path-1-path"></path>
            <path d="M161.12,84.88 C146.99,83.75 129.28,94.26 129.78,93.7 C145.43,76.18 169.98,70.83 183.67,85.04 C157.94,93.04 154.47,111.92 133.35,98.91 C132.86,98.6 132.36,98.28 131.84,97.94 C130.72,97.2 145.7,89.08 161.12,84.88 Z" id="Path-1-path"></path>
            <path d="M201.4,62.54 C188.05,57.79 168.21,63.36 168.84,62.95 C188.5,50.08 213.6,51.27 223.13,68.54 C196.21,69.6 187.97,86.94 170.95,68.9 C170.55,68.48 170.14,68.04 169.74,67.58 C168.84,66.56 185.42,62.61 201.4,62.54 Z" id="Path-1-path"></path>
            <path d="M52.95,141.96 C61.38,156.18 59.46,180.13 59.79,179.31 C70.1,153.93 63.12,125.48 41.22,118.44 C46.03,149.48 28.04,162.8 52.5,178.24 C53.07,178.61 53.67,178.97 54.28,179.33 C55.65,180.13 56.46,160.27 52.95,141.96 Z" id="Path-1-path"></path>
            <path d="M83.28,100.2 C87.3,116.4 78.48,139.01 79.04,138.31 C96.39,116.76 97.89,87.21 78.75,74.04 C74.4,105.47 53.12,113.13 72.3,135.17 C72.75,135.68 73.22,136.21 73.71,136.74 C74.8,137.91 81.35,118.93 83.28,100.2 Z" id="Path-1-path"></path>
            <path d="M115.61,60.78 C117.88,75.68 108.09,95.27 108.66,94.7 C126.03,76.75 129.83,50.3 113.7,36.88 C107.19,64.78 87.43,69.91 102.86,91.31 C103.21,91.81 103.59,92.32 104,92.83 C104.88,93.98 112.34,77.46 115.61,60.78 Z" id="Path-1-path"></path>
            <path d="M151.19,38.54 C150.83,51.6 139.45,66.8 140.02,66.4 C157.61,53.77 164.94,31.8 153.26,17.86 C143.39,40.65 125.74,41.98 135.59,62.61 C135.82,63.1 136.07,63.59 136.33,64.09 C136.9,65.21 145.82,52.26 151.19,38.54 Z" id="Path-1-path"></path>
            <path d="M188.35,19.83 C185.36,32.56 171.16,45.16 171.79,44.88 C191.58,36.05 203.18,16 194.55,0 C180.29,20.34 162.73,18.08 168.23,40.27 C168.35,40.8 168.5,41.33 168.65,41.88 C168.99,43.08 180.34,32.2 188.35,19.83 Z" id="Path-1-path"></path>
            <path d="M220.3,29.41 C203.67,29.86 184.31,44.35 184.82,43.63 C200.9,21.22 228.89,11.91 246.63,26.78 C217.61,39.34 215.91,61.81 189.65,49.26 C189.03,48.97 188.4,48.66 187.76,48.32 C186.34,47.59 202.83,36.24 220.3,29.41 Z" id="Path-1-path"></path>
            <path d="M190.1,450.87 C192.65,450.32 195.16,451.94 195.71,454.49 C196.26,457.03 194.64,459.54 192.1,460.09 C189.55,460.64 187.05,459.03 186.5,456.48 C185.95,453.94 187.56,451.42 190.1,450.87 Z" id="Path-1-path"></path>
            <path d="M102.22,448.31 C104.36,447.85 106.48,449.21 106.94,451.35 C107.4,453.49 106.04,455.61 103.9,456.08 C101.76,456.54 99.65,455.17 99.18,453.03 C98.72,450.89 100.08,448.78 102.22,448.31 Z" id="Path-1-path"></path>
            <path d="M92.61,357.67 C94.76,357.21 96.87,358.57 97.34,360.72 C97.8,362.86 96.44,364.98 94.3,365.44 C92.15,365.91 90.04,364.54 89.58,362.4 C89.11,360.25 90.47,358.14 92.61,357.67 Z" id="Path-1-path"></path>
            <path d="M57.21,381.13 C59.36,380.67 61.47,382.03 61.94,384.18 C62.4,386.33 61.04,388.44 58.89,388.9 C56.75,389.36 54.64,388.01 54.17,385.86 C53.7,383.71 55.07,381.6 57.21,381.13 Z" id="Path-1-path"></path>
            <path d="M36.33,310.09 C38.48,309.62 40.6,310.99 41.06,313.13 C41.53,315.27 40.16,317.38 38.01,317.85 C35.87,318.31 33.76,316.96 33.3,314.81 C32.84,312.67 34.19,310.55 36.33,310.09 Z" id="Path-1-path"></path>
            <path d="M72.89,298.06 C75.04,297.59 77.15,298.95 77.61,301.09 C78.08,303.24 76.71,305.35 74.57,305.81 C72.43,306.28 70.31,304.92 69.85,302.77 C69.39,300.64 70.75,298.52 72.89,298.06 Z" id="Path-1-path"></path>
            <path d="M65.56,236.37 C67.7,235.91 69.82,237.26 70.29,239.41 C70.75,241.55 69.38,243.67 67.24,244.13 C65.1,244.6 62.99,243.24 62.52,241.09 C62.06,238.94 63.42,236.84 65.56,236.37 Z" id="Path-1-path"></path>
            <path d="M37.29,247.29 C38.95,246.93 40.58,247.99 40.94,249.65 C41.3,251.31 40.25,252.94 38.59,253.3 C36.93,253.66 35.29,252.61 34.93,250.95 C34.57,249.29 35.63,247.65 37.29,247.29 Z" id="Path-1-path"></path>
            <path d="M79.35,183.56 C81.01,183.2 82.65,184.25 83.01,185.91 C83.37,187.57 82.31,189.21 80.65,189.56 C79,189.92 77.36,188.88 77,187.21 C76.64,185.55 77.69,183.91 79.35,183.56 Z" id="Path-1-path"></path>
            <path d="M47.46,183.7 C49.13,183.34 50.76,184.4 51.12,186.06 C51.48,187.72 50.43,189.36 48.77,189.72 C47.11,190.08 45.47,189.02 45.11,187.36 C44.75,185.7 45.8,184.06 47.46,183.7 Z" id="Path-1-path"></path>
            <path d="M67.12,137.07 C68.78,136.71 70.42,137.77 70.77,139.43 C71.14,141.09 70.09,142.73 68.42,143.09 C66.76,143.45 65.12,142.39 64.76,140.73 C64.4,139.07 65.46,137.43 67.12,137.07 Z" id="Path-1-path"></path>
            <path d="M96.68,90.48 C98.34,90.12 99.97,91.18 100.33,92.84 C100.69,94.5 99.64,96.14 97.98,96.49 C96.32,96.86 94.68,95.8 94.32,94.14 C93.96,92.48 95.02,90.84 96.68,90.48 Z" id="Path-1-path"></path>
            <path d="M128.53,62.12 C130.18,61.76 131.82,62.81 132.18,64.48 C132.54,66.14 131.48,67.77 129.83,68.13 C128.17,68.49 126.53,67.44 126.17,65.78 C125.81,64.12 126.87,62.48 128.53,62.12 Z" id="Path-1-path"></path>
            <path d="M161.31,39.26 C162.83,38.93 164.33,39.9 164.66,41.42 C164.99,42.94 164.02,44.44 162.5,44.77 C160.98,45.1 159.48,44.13 159.15,42.61 C158.82,41.09 159.78,39.59 161.31,39.26 Z" id="Path-1-path"></path>
            <path d="M167.82,56.18 C169.34,55.85 170.84,56.81 171.17,58.33 C171.5,59.86 170.53,61.35 169.01,61.68 C167.49,62.01 165.99,61.05 165.66,59.52 C165.33,58 166.3,56.51 167.82,56.18 Z" id="Path-1-path"></path>
            <path d="M162.63,69.6 C164.29,69.24 165.93,70.3 166.29,71.96 C166.64,73.62 165.59,75.26 163.93,75.62 C162.27,75.98 160.63,74.92 160.27,73.26 C159.91,71.6 160.97,69.96 162.63,69.6 Z" id="Path-1-path"></path>
            <path d="M122.93,102.42 C124.59,102.06 126.23,103.11 126.59,104.77 C126.95,106.44 125.89,108.07 124.23,108.43 C122.57,108.79 120.94,107.74 120.58,106.07 C120.22,104.41 121.27,102.78 122.93,102.42 Z" id="Path-1-path"></path>
            <path d="M95.45,144.96 C97.12,144.6 98.75,145.65 99.11,147.31 C99.47,148.97 98.42,150.61 96.75,150.97 C95.1,151.32 93.45,150.27 93.1,148.61 C92.74,146.95 93.79,145.32 95.45,144.96 Z" id="Path-1-path"></path>
            <path d="M131.87,413.86 C134.01,413.4 136.12,414.76 136.59,416.9 C137.05,419.05 135.69,421.17 133.55,421.63 C131.41,422.09 129.29,420.73 128.83,418.58 C128.36,416.43 129.73,414.33 131.87,413.86 Z" id="Path-1-path"></path>
            <path d="M192.95,461.62 C195.09,461.15 197.2,462.51 197.67,464.66 C198.13,466.8 196.77,468.91 194.63,469.38 C192.48,469.84 190.37,468.48 189.91,466.34 C189.44,464.19 190.8,462.08 192.95,461.62 Z" id="Path-1-path"></path>
            <path d="M178.43,493.24 C180.57,492.78 182.69,494.14 183.15,496.28 C183.62,498.43 182.25,500.54 180.1,501 C177.96,501.46 175.85,500.11 175.39,497.96 C174.92,495.82 176.29,493.71 178.43,493.24 Z" id="Path-1-path"></path>
            <path d="M166.03,494.93 C168.58,494.38 171.09,496.01 171.64,498.54 C172.19,501.1 170.57,503.6 168.03,504.15 C165.48,504.7 162.97,503.09 162.42,500.54 C161.87,498 163.48,495.48 166.03,494.93 Z" id="Path-1-path"></path>
            <path d="M291.41,500.65 C293.55,500.19 295.67,501.55 296.13,503.69 C296.59,505.83 295.23,507.95 293.09,508.41 C290.94,508.88 288.83,507.51 288.37,505.37 C287.91,503.23 289.26,501.11 291.41,500.65 Z" id="Path-1-path"></path>
            <path d="M281.07,506.95 C283.21,506.49 285.32,507.85 285.79,509.99 C286.25,512.14 284.89,514.25 282.75,514.71 C280.6,515.18 278.49,513.82 278.02,511.67 C277.56,509.53 278.92,507.42 281.07,506.95 Z" id="Path-1-path"></path>
            <path d="M456.16,437.03 C449.23,462.97 419.26,487.96 420.59,487.42 C461.77,470.54 486.84,430.09 470.12,396.67 C439.57,437.55 403.65,431.8 413.53,477.75 C413.76,478.83 414.02,479.93 414.31,481.07 C414.93,483.55 438.9,461.92 456.16,437.03 Z" id="Path-1-path"></path>
            <path d="M493.94,522.72 C468.15,507.93 425.13,512 426.6,511.38 C471.97,492.18 523.32,504.01 536.55,543.21 C480.59,535.35 457.1,568.05 428.7,524.46 C428.03,523.45 427.37,522.38 426.7,521.28 C425.22,518.85 460.92,516.87 493.94,522.72 Z" id="Path-1-path"></path>
            <path d="M337.41,492.8 C344.84,483.9 356.3,482.85 367,485.12 C373.35,486.46 379,487.84 385.6,487.37 C392.46,486.89 399.28,485.27 405.71,482.82 C407.38,482.18 409.03,481.48 410.65,480.74 C401.06,488.75 392.88,491.87 382.15,493.34 C396.41,499.91 414.15,508.64 425.55,527.96 C413.46,517.24 399.61,508.79 385.31,501.4 C374.6,495.87 361.32,485.73 348.6,491.61 C339.88,495.64 335.32,507.33 339.97,515.97 C341.02,517.93 342.51,519.62 344.28,520.96 C351.51,526.43 365.27,523.2 365.76,512.85 C365.96,508.57 362.47,505.3 358.2,504.56 C346.12,502.44 344.23,517.41 344.12,513.47 C343.83,502.97 354.57,494.91 364.33,500.09 C374.7,505.6 373.53,519.6 364.68,526.01 C355.97,532.31 343.6,530.49 336.87,522.23 C329.86,513.65 330.42,501.18 337.41,492.8 Z" id="Path-1-path"></path>
            <path d="M512.85,402.43 C514.19,426.91 495.25,457.07 496.26,456.23 C527.2,429.92 537.5,387.73 513.54,363.46 C498.6,407.59 465.81,412.77 487.39,449.83 C487.9,450.7 488.43,451.58 489,452.48 C490.25,454.47 504.92,428.91 512.85,402.43 Z" id="Path-1-path"></path>
            <path d="M557.29,472.76 C531.98,466.76 496.92,480.87 497.99,479.98 C531.28,452.6 577.29,449.77 598.12,479.36 C549.23,486.68 537.66,519.94 503.01,490.43 C502.2,489.74 501.37,489.02 500.54,488.25 C498.7,486.58 528.15,476.06 557.29,472.76 Z" id="Path-1-path"></path>
            <path d="M551.56,351.45 C558.86,372.78 549.65,404.21 550.33,403.21 C571.14,372.19 569.69,332.27 542.42,316.8 C540.24,359.58 512.52,372.37 540.89,399.77 C541.55,400.41 542.25,401.06 542.98,401.71 C544.57,403.16 551.17,376.87 551.56,351.45 Z" id="Path-1-path"></path>
            <path d="M609.82,407.38 C583.28,411.12 554.91,437.84 555.61,436.58 C577.29,397.79 620.39,377.8 651.5,398.37 C607.32,423.76 608.7,460.04 564.35,444.73 C563.32,444.37 562.25,443.99 561.16,443.57 C558.77,442.65 583.09,421.49 609.82,407.38 Z" id="Path-1-path"></path>
            <path d="M572.42,300.5 C584.25,316.58 584.79,345.59 585.1,344.56 C594.46,312.83 582.66,279.48 555.5,273.64 C565,310.37 544.97,328.52 576.22,344.15 C576.95,344.52 577.7,344.88 578.5,345.24 C580.23,346.04 578.83,322.08 572.42,300.5 Z" id="Path-1-path"></path>
            <path d="M636.03,336.07 C614.21,345.7 596.38,375.44 596.67,374.2 C605.85,335.74 637.92,308.19 669.54,318.29 C637.84,350.71 647.8,381.45 606.13,379.06 C605.15,379.01 604.15,378.93 603.11,378.83 C600.84,378.63 616.56,354.62 636.03,336.07 Z" id="Path-1-path"></path>
            <path d="M581.57,245.75 C596.12,257.78 603.3,284.26 603.34,283.25 C604.63,252 586.13,224.11 559.88,225 C577.04,256.51 562.84,277.77 595.09,284.93 C595.84,285.1 596.63,285.25 597.43,285.4 C599.2,285.74 592.41,264.07 581.57,245.75 Z" id="Path-1-path"></path>
            <path d="M644.25,265.12 C627.53,278.11 618.57,307.54 618.56,306.41 C618.19,271.32 639.88,240.71 669.28,242.61 C648.96,277.34 664.15,301.66 627.75,308.57 C626.89,308.73 626.02,308.88 625.11,309.02 C623.11,309.33 631.47,285.29 644.25,265.12 Z" id="Path-1-path"></path>
            <path d="M578.09,197.47 C592.65,204.36 604.16,224.74 603.98,223.9 C598.48,197.79 577.31,178.62 555.79,184.87 C576.61,207.32 569.33,227.88 597.51,227.02 C598.17,227 598.86,226.96 599.55,226.93 C601.09,226.83 590.91,210.34 578.09,197.47 Z" id="Path-1-path"></path>
            <path d="M634.53,201 C622.85,215.6 621.23,242.74 620.99,241.77 C613.43,211.7 625.74,180.92 651.4,176.48 C641.1,210.51 659.17,228.28 629.32,241.72 C628.63,242.04 627.9,242.36 627.15,242.67 C625.49,243.35 627.72,220.96 634.53,201 Z" id="Path-1-path"></path>
            <path d="M559.42,156.26 C573.62,158.99 588.18,174.13 587.85,173.43 C577.2,151.97 554.52,140.05 537.22,150.31 C560.34,165.15 558.64,184.65 582.92,177.59 C583.49,177.42 584.07,177.24 584.67,177.05 C585.99,176.62 573.45,164.58 559.42,156.26 Z" id="Path-1-path"></path>
            <path d="M540.85,119.32 C554.94,120.94 570.29,134.66 569.91,134.01 C557.92,113.81 534.86,103.84 518.7,115.15 C542.41,127.95 542.17,147.14 565.4,138.43 C565.95,138.23 566.5,138.02 567.07,137.78 C568.32,137.26 555.17,126.41 540.85,119.32 Z" id="Path-1-path"></path>
            <path d="M508.42,84.88 C522.55,83.75 540.27,94.26 539.76,93.7 C524.11,76.18 499.56,70.83 485.88,85.04 C511.61,93.04 515.08,111.92 536.19,98.91 C536.68,98.6 537.19,98.28 537.7,97.94 C538.83,97.2 523.85,89.08 508.42,84.88 Z" id="Path-1-path"></path>
            <path d="M468.14,62.54 C481.5,57.79 501.33,63.36 500.7,62.95 C481.05,50.08 455.95,51.27 446.42,68.54 C473.33,69.6 481.58,86.94 498.59,68.9 C499,68.48 499.4,68.04 499.81,67.58 C500.71,66.56 484.13,62.61 468.14,62.54 Z" id="Path-1-path"></path>
            <path d="M616.59,141.96 C608.16,156.18 610.09,180.13 609.76,179.31 C599.44,153.93 606.43,125.48 628.32,118.44 C623.51,149.48 641.51,162.8 617.05,178.24 C616.47,178.61 615.88,178.97 615.27,179.33 C613.89,180.13 613.08,160.27 616.59,141.96 Z" id="Path-1-path"></path>
            <path d="M586.27,100.2 C582.25,116.4 591.07,139.01 590.51,138.31 C573.15,116.76 571.66,87.21 590.79,74.04 C595.15,105.47 616.43,113.13 597.25,135.17 C596.8,135.68 596.33,136.21 595.84,136.74 C594.74,137.91 588.19,118.93 586.27,100.2 Z" id="Path-1-path"></path>
            <path d="M553.94,60.78 C551.66,75.68 561.45,95.27 560.89,94.7 C543.51,76.75 539.72,50.3 555.84,36.88 C562.35,64.78 582.12,69.91 566.69,91.31 C566.33,91.81 565.95,92.32 565.55,92.83 C564.67,93.98 557.21,77.46 553.94,60.78 Z" id="Path-1-path"></path>
            <path d="M518.36,38.54 C518.72,51.6 530.09,66.8 529.53,66.4 C511.93,53.77 504.61,31.8 516.29,17.86 C526.16,40.65 543.81,41.98 533.96,62.61 C533.72,63.1 533.48,63.59 533.22,64.09 C532.64,65.21 523.72,52.26 518.36,38.54 Z" id="Path-1-path"></path>
            <path d="M481.19,19.83 C484.18,32.56 498.38,45.16 497.75,44.88 C477.96,36.05 466.37,16 475,0 C489.26,20.34 506.81,18.08 501.32,40.27 C501.19,40.8 501.05,41.33 500.9,41.88 C500.56,43.08 489.21,32.2 481.19,19.83 Z" id="Path-1-path"></path>
            <path d="M449.24,29.41 C465.87,29.86 485.24,44.35 484.72,43.63 C468.64,21.22 440.66,11.91 422.91,26.78 C451.94,39.34 453.63,61.81 479.9,49.26 C480.52,48.97 481.14,48.66 481.79,48.32 C483.2,47.59 466.72,36.24 449.24,29.41 Z" id="Path-1-path"></path>
            <path d="M479.44,450.87 C476.9,450.32 474.39,451.94 473.83,454.49 C473.28,457.03 474.9,459.54 477.45,460.09 C479.99,460.64 482.5,459.03 483.05,456.48 C483.6,453.94 481.99,451.42 479.44,450.87 Z" id="Path-1-path"></path>
            <path d="M567.32,448.31 C565.18,447.85 563.07,449.21 562.6,451.35 C562.14,453.49 563.5,455.61 565.64,456.08 C567.79,456.54 569.9,455.17 570.36,453.03 C570.82,450.89 569.47,448.78 567.32,448.31 Z" id="Path-1-path"></path>
            <path d="M576.93,357.67 C574.79,357.21 572.67,358.57 572.21,360.72 C571.75,362.86 573.11,364.98 575.25,365.44 C577.4,365.91 579.5,364.54 579.97,362.4 C580.43,360.25 579.08,358.14 576.93,357.67 Z" id="Path-1-path"></path>
            <path d="M612.33,381.13 C610.19,380.67 608.08,382.03 607.61,384.18 C607.14,386.33 608.51,388.44 610.65,388.9 C612.79,389.36 614.91,388.01 615.37,385.86 C615.84,383.71 614.47,381.6 612.33,381.13 Z" id="Path-1-path"></path>
            <path d="M633.21,310.09 C631.06,309.62 628.95,310.99 628.48,313.13 C628.02,315.27 629.38,317.38 631.53,317.85 C633.67,318.31 635.78,316.96 636.25,314.81 C636.71,312.67 635.35,310.55 633.21,310.09 Z" id="Path-1-path"></path>
            <path d="M596.65,298.06 C594.51,297.59 592.39,298.95 591.93,301.09 C591.47,303.24 592.83,305.35 594.97,305.81 C597.12,306.28 599.23,304.92 599.7,302.77 C600.16,300.64 598.8,298.52 596.65,298.06 Z" id="Path-1-path"></path>
            <path d="M603.98,236.37 C601.84,235.91 599.72,237.26 599.26,239.41 C598.8,241.55 600.16,243.67 602.3,244.13 C604.45,244.6 606.56,243.24 607.02,241.09 C607.49,238.94 606.13,236.84 603.98,236.37 Z" id="Path-1-path"></path>
            <path d="M632.26,247.29 C630.6,246.93 628.96,247.99 628.6,249.65 C628.24,251.31 629.3,252.94 630.96,253.3 C632.62,253.66 634.26,252.61 634.61,250.95 C634.97,249.29 633.92,247.65 632.26,247.29 Z" id="Path-1-path"></path>
            <path d="M590.19,183.56 C588.53,183.2 586.9,184.25 586.54,185.91 C586.18,187.57 587.23,189.21 588.89,189.56 C590.55,189.92 592.19,188.88 592.55,187.21 C592.91,185.55 591.85,183.91 590.19,183.56 Z" id="Path-1-path"></path>
            <path d="M622.08,183.7 C620.42,183.34 618.79,184.4 618.43,186.06 C618.07,187.72 619.11,189.36 620.78,189.72 C622.44,190.08 624.08,189.02 624.44,187.36 C624.8,185.7 623.74,184.06 622.08,183.7 Z" id="Path-1-path"></path>
            <path d="M602.42,137.07 C600.76,136.71 599.13,137.77 598.77,139.43 C598.41,141.09 599.46,142.73 601.12,143.09 C602.78,143.45 604.42,142.39 604.78,140.73 C605.14,139.07 604.09,137.43 602.42,137.07 Z" id="Path-1-path"></path>
            <path d="M572.87,90.48 C571.21,90.12 569.57,91.18 569.21,92.84 C568.85,94.5 569.91,96.14 571.57,96.49 C573.23,96.86 574.87,95.8 575.23,94.14 C575.59,92.48 574.53,90.84 572.87,90.48 Z" id="Path-1-path"></path>
            <path d="M541.02,62.12 C539.36,61.76 537.73,62.81 537.37,64.48 C537.01,66.14 538.06,67.77 539.72,68.13 C541.38,68.49 543.02,67.44 543.38,65.78 C543.73,64.12 542.68,62.48 541.02,62.12 Z" id="Path-1-path"></path>
            <path d="M508.24,39.26 C506.72,38.93 505.21,39.9 504.89,41.42 C504.56,42.94 505.53,44.44 507.05,44.77 C508.57,45.1 510.06,44.13 510.39,42.61 C510.72,41.09 509.76,39.59 508.24,39.26 Z" id="Path-1-path"></path>
            <path d="M501.73,56.18 C500.2,55.85 498.7,56.81 498.37,58.33 C498.04,59.86 499.01,61.35 500.53,61.68 C502.05,62.01 503.55,61.05 503.88,59.52 C504.21,58 503.24,56.51 501.73,56.18 Z" id="Path-1-path"></path>
            <path d="M506.92,69.6 C505.26,69.24 503.62,70.3 503.26,71.96 C502.9,73.62 503.96,75.26 505.62,75.62 C507.28,75.98 508.91,74.92 509.27,73.26 C509.63,71.6 508.58,69.96 506.92,69.6 Z" id="Path-1-path"></path>
            <path d="M546.61,102.42 C544.95,102.06 543.32,103.11 542.95,104.77 C542.6,106.44 543.65,108.07 545.31,108.43 C546.97,108.79 548.61,107.74 548.97,106.07 C549.33,104.41 548.27,102.78 546.61,102.42 Z" id="Path-1-path"></path>
            <path d="M574.09,144.96 C572.43,144.6 570.8,145.65 570.44,147.31 C570.08,148.97 571.13,150.61 572.79,150.97 C574.45,151.32 576.09,150.27 576.45,148.61 C576.81,146.95 575.75,145.32 574.09,144.96 Z" id="Path-1-path"></path>
            <path d="M537.67,413.86 C535.54,413.4 533.42,414.76 532.96,416.9 C532.49,419.05 533.85,421.17 535.99,421.63 C538.14,422.09 540.25,420.73 540.72,418.58 C541.18,416.43 539.82,414.33 537.67,413.86 Z" id="Path-1-path"></path>
            <path d="M476.6,461.62 C474.46,461.15 472.34,462.51 471.88,464.66 C471.42,466.8 472.78,468.91 474.92,469.38 C477.07,469.84 479.18,468.48 479.64,466.34 C480.1,464.19 478.75,462.08 476.6,461.62 Z" id="Path-1-path"></path>
            <path d="M491.12,493.24 C488.97,492.78 486.86,494.14 486.4,496.28 C485.93,498.43 487.29,500.54 489.44,501 C491.58,501.46 493.7,500.11 494.16,497.96 C494.62,495.82 493.26,493.71 491.12,493.24 Z" id="Path-1-path"></path>
            <path d="M503.52,494.93 C500.97,494.38 498.46,496.01 497.91,498.54 C497.36,501.1 498.97,503.6 501.52,504.15 C504.07,504.7 506.58,503.09 507.13,500.54 C507.68,498 506.06,495.48 503.52,494.93 Z" id="Path-1-path"></path>
            <path d="M378.13,500.65 C376,500.19 373.88,501.55 373.42,503.69 C372.95,505.83 374.31,507.95 376.45,508.41 C378.6,508.88 380.71,507.51 381.18,505.37 C381.64,503.23 380.28,501.11 378.13,500.65 Z" id="Path-1-path"></path>
            <path d="M388.48,506.95 C386.34,506.49 384.23,507.85 383.76,509.99 C383.3,512.14 384.66,514.25 386.8,514.71 C388.95,515.18 391.06,513.82 391.52,511.67 C391.98,509.53 390.63,507.42 388.48,506.95 Z" id="Path-1-path"></path>
            <path d="M256.91,561.85 C279.04,538.32 325.04,528.97 323.33,528.78 C270.09,523.16 220.47,551.69 219.1,596.61 C274.78,570.76 309.53,597.33 325.28,543.05 C325.65,541.78 326,540.46 326.35,539.1 C327.11,536.11 289.38,545.33 256.91,561.85 Z" id="Path-1-path"></path>
            <path d="M412.63,561.85 C390.5,538.32 344.5,528.97 346.22,528.78 C399.45,523.16 449.08,551.69 450.44,596.61 C394.76,570.76 360.02,597.33 344.27,543.05 C343.9,541.78 343.54,540.46 343.2,539.1 C342.43,536.11 380.17,545.33 412.63,561.85 Z" id="Path-1-path"></path>
        </g>
        <path d="M1157.13,732.53 C1158.12,732.83 1159.09,733.09 1160.03,733.34 C1200.28,743.81 1196.55,711.84 1233.84,686.36 C1204.93,670.32 1168.22,690.97 1151.74,726.74 C1151.21,727.9 1174.43,702.33 1197.63,697.18 C1174.98,711.5 1154.95,731.88 1157.13,732.52 L1157.13,732.53 Z M1096.21,697.19 C1119.41,702.34 1142.63,727.9 1142.1,726.75 C1125.63,690.98 1088.92,670.33 1060,686.37 C1097.29,711.85 1093.56,743.82 1133.81,733.35 C1134.75,733.1 1135.72,732.84 1136.71,732.54 C1138.89,731.89 1118.86,711.51 1096.21,697.2 L1096.21,697.19 Z M1157.61,644.74 C1149.25,629.36 1146.91,617 1146.91,617 C1146.91,617 1144.57,629.36 1136.22,644.74 C1127.86,660.12 1115.69,689.86 1142.43,710.91 L1146.92,656.63 L1151.41,710.91 C1178.15,689.86 1165.97,660.11 1157.62,644.74 L1157.61,644.74 Z M1179.06,661.4 C1176.76,661.4 1174.9,663.26 1174.9,665.56 C1174.9,667.86 1176.76,669.72 1179.06,669.72 C1181.36,669.72 1183.22,667.86 1183.22,665.56 C1183.22,663.26 1181.36,661.4 1179.06,661.4 Z M1115.13,661.4 C1112.83,661.4 1110.97,663.26 1110.97,665.56 C1110.97,667.86 1112.83,669.72 1115.13,669.72 C1117.43,669.72 1119.29,667.86 1119.29,665.56 C1119.29,663.26 1117.43,661.4 1115.13,661.4 Z M1187.11,670.33 C1184.23,670.33 1181.9,672.66 1181.9,675.54 C1181.9,678.42 1184.23,680.75 1187.11,680.75 C1189.99,680.75 1192.32,678.42 1192.32,675.54 C1192.32,672.66 1189.99,670.33 1187.11,670.33 Z M1107.08,670.33 C1104.2,670.33 1101.87,672.66 1101.87,675.54 C1101.87,678.42 1104.2,680.75 1107.08,680.75 C1109.96,680.75 1112.29,678.42 1112.29,675.54 C1112.29,672.66 1109.96,670.33 1107.08,670.33 Z" id="Path-6" fill="#000000" fill-rule="nonzero"></path>
        <path d="M1198.63,773.200526 C1175.43,768.050526 1152.21,742.490526 1152.74,743.640526 C1169.21,779.410526 1205.92,800.060526 1234.84,784.020526 C1197.55,758.540526 1201.28,726.570526 1161.03,737.040526 C1160.09,737.290526 1159.12,737.550526 1158.13,737.850526 C1155.95,738.500526 1175.98,758.880526 1198.63,773.190526 L1198.63,773.200526 Z M1137.71,737.860526 C1136.72,737.560526 1135.75,737.300526 1134.81,737.050526 C1094.56,726.580526 1098.29,758.550526 1061,784.030526 C1089.91,800.070526 1126.63,779.420526 1143.1,743.650526 C1143.63,742.490526 1120.41,768.060526 1097.21,773.210526 C1119.86,758.890526 1139.89,738.510526 1137.71,737.870526 L1137.71,737.860526 Z M1152.4,759.470526 L1147.91,813.750526 L1143.42,759.470526 C1116.68,780.520526 1128.86,810.270526 1137.21,825.640526 C1145.56,841.020526 1147.9,853.380526 1147.9,853.380526 C1147.9,853.380526 1150.24,841.020526 1158.6,825.640526 C1166.96,810.260526 1179.13,780.520526 1152.39,759.470526 L1152.4,759.470526 Z M1184.22,804.820526 C1184.22,802.520526 1182.36,800.660526 1180.06,800.660526 C1177.76,800.660526 1175.9,802.520526 1175.9,804.820526 C1175.9,807.120526 1177.76,808.980526 1180.06,808.980526 C1182.36,808.980526 1184.22,807.120526 1184.22,804.820526 Z M1120.29,804.820526 C1120.29,802.520526 1118.43,800.660526 1116.13,800.660526 C1113.83,800.660526 1111.97,802.520526 1111.97,804.820526 C1111.97,807.120526 1113.83,808.980526 1116.13,808.980526 C1118.43,808.980526 1120.29,807.120526 1120.29,804.820526 Z M1193.32,794.850526 C1193.32,791.970526 1190.99,789.640526 1188.11,789.640526 C1185.23,789.640526 1182.9,791.970526 1182.9,794.850526 C1182.9,797.730526 1185.23,800.060526 1188.11,800.060526 C1190.99,800.060526 1193.32,797.730526 1193.32,794.850526 Z M1113.29,794.850526 C1113.29,791.970526 1110.96,789.640526 1108.08,789.640526 C1105.2,789.640526 1102.87,791.970526 1102.87,794.850526 C1102.87,797.730526 1105.2,800.060526 1108.08,800.060526 C1110.96,800.060526 1113.29,797.730526 1113.29,794.850526 Z" id="Path-11" fill="#000000" fill-rule="nonzero"></path>
        <path d="M1263.5,735 L1030.49955,735" id="Path-23" stroke="#000000" stroke-width="3.648" stroke-linecap="round"></path>
        <path d="M995.390742,777.57 C999.680742,758.26 1020.96074,738.93 1019.99074,739.37 C990.210742,753.08 973.020742,783.64 986.370742,807.71 C1007.58074,776.66 1034.19074,779.77 1025.48074,746.26 C1025.28074,745.48 1025.05074,744.67 1024.81074,743.85 C1024.27074,742.04 1007.31074,758.71 995.390742,777.57 Z M1024.82074,726.86 C1025.07074,726.04 1025.29074,725.23 1025.49074,724.45 C1034.21074,690.95 1007.60074,694.05 986.380742,663 C973.030742,687.07 990.220742,717.63 1020.00074,731.34 C1020.96074,731.78 999.680742,712.45 995.400742,693.14 C1007.32074,712 1024.29074,728.67 1024.82074,726.86 Z M1006.82074,739.09 L961.630742,735.35 L1006.82074,731.62 C989.290742,709.36 964.530742,719.5 951.730742,726.45 C938.930742,733.41 928.640742,735.35 928.640742,735.35 C928.640742,735.35 938.940742,737.3 951.730742,744.25 C964.530742,751.21 989.290742,761.34 1006.82074,739.08 L1006.82074,739.09 Z M969.070742,765.57 C970.980742,765.57 972.530742,764.02 972.530742,762.11 C972.530742,760.2 970.980742,758.65 969.070742,758.65 C967.160742,758.65 965.610742,760.2 965.610742,762.11 C965.610742,764.02 967.160742,765.57 969.070742,765.57 Z M969.070742,712.36 C970.980742,712.36 972.530742,710.81 972.530742,708.9 C972.530742,706.99 970.980742,705.44 969.070742,705.44 C967.160742,705.44 965.610742,706.99 965.610742,708.9 C965.610742,710.81 967.160742,712.36 969.070742,712.36 Z M977.370742,773.15 C979.760742,773.15 981.710742,771.21 981.710742,768.81 C981.710742,766.42 979.770742,764.47 977.370742,764.47 C974.980742,764.47 973.030742,766.41 973.030742,768.81 C973.030742,771.2 974.970742,773.15 977.370742,773.15 Z M977.370742,706.53 C979.760742,706.53 981.710742,704.59 981.710742,702.19 C981.710742,699.8 979.770742,697.85 977.370742,697.85 C974.980742,697.85 973.030742,699.79 973.030742,702.19 C973.030742,704.58 974.970742,706.53 977.370742,706.53 Z" id="Path-24" fill="#000000" fill-rule="nonzero"></path>
        <path d="M1159.92,734.96 C1159.92,728.36 1154.55,723 1147.96,723 C1141.36,723 1136,728.37 1136,734.96 C1136,741.56 1141.37,746.92 1147.96,746.92 C1154.56,746.92 1159.92,741.55 1159.92,734.96 Z" id="Path-25" fill="#211915" fill-rule="nonzero"></path>
        <path d="M1147.77,720 C1139.07,720 1132,727.07 1132,735.77 C1132,744.45 1139.07,751.53 1147.77,751.53 C1156.46,751.53 1163.53,744.45 1163.53,735.77 C1163.53,727.07 1156.46,720 1147.77,720 Z M1147.77,727.6 C1152.27,727.6 1155.93,731.26 1155.93,735.77 C1155.93,740.27 1152.27,743.93 1147.77,743.93 C1143.26,743.93 1139.6,740.27 1139.6,735.77 C1139.6,731.26 1143.26,727.6 1147.77,727.6 Z" id="Path-26" fill="#FFFFFF" fill-rule="nonzero"></path>
        <path d="M1056.67187,712.491489 C1052.34644,707.941489 1046.54761,711.241489 1045.13254,718.301489 C1044.37395,722.081489 1046.3069,723.301489 1047.74384,719.911489 C1050.19467,714.151489 1054.96504,716.061489 1055.57775,721.001489 C1056.28528,726.711489 1051.52221,729.181489 1048.13043,728.141489 C1039.66194,725.551489 1032.71792,704.181489 1032.71063,704.151489 C1031.82804,700.451489 1029.19486,701.871489 1029.54498,705.771489 C1030.44215,715.931489 1029.58874,725.501489 1027.33485,734.011489 C1026.35744,737.691489 1030.64639,739.281489 1031.60922,735.631489 C1033.00969,730.361489 1033.91416,724.921489 1034.32993,719.401489 C1036.08782,723.001489 1038.17394,726.281489 1040.59559,729.051489 C1045.14713,734.251489 1051.72644,737.211489 1056.7521,731.361489 C1060.97541,726.451489 1061.18694,717.241489 1056.66457,712.501489 L1056.67187,712.491489 Z M1056.7594,738.591489 C1051.73374,732.741489 1045.15443,735.691489 1040.60289,740.901489 C1038.18123,743.671489 1036.09511,746.961489 1034.33722,750.551489 C1033.92146,745.031489 1033.00969,739.591489 1031.61651,734.321489 C1030.64639,730.671489 1026.36473,732.251489 1027.34215,735.941489 C1029.60333,744.451489 1030.44945,754.021489 1029.55227,764.181489 C1029.20945,768.081489 1031.84263,769.501489 1032.71792,765.801489 C1032.72522,765.771489 1039.66924,744.401489 1048.13773,741.811489 C1051.52221,740.771489 1056.29257,743.231489 1055.58504,748.951489 C1054.97233,753.891489 1050.20197,755.801489 1047.75114,750.041489 C1046.31419,746.661489 1044.37395,747.881489 1045.13984,751.651489 C1046.5549,758.701489 1052.35374,762.001489 1056.67916,757.461489 C1061.20152,752.711489 1060.9827,743.511489 1056.76669,738.601489 L1056.7594,738.591489 Z" id="Path-27" fill="#211915" fill-rule="nonzero"></path>
        <path d="M1269.37027,743.85 C1269.12027,744.67 1268.90027,745.48 1268.70027,746.26 C1259.98027,779.76 1286.59027,776.66 1307.81027,807.71 C1321.16027,783.64 1303.97027,753.08 1274.19027,739.37 C1273.23027,738.93 1294.51027,758.26 1298.79027,777.57 C1286.87027,758.71 1269.90027,742.04 1269.37027,743.85 Z M1298.79027,693.14 C1294.50027,712.45 1273.22027,731.78 1274.19027,731.34 C1303.97027,717.63 1321.16027,687.07 1307.81027,663 C1286.60027,694.05 1259.99027,690.94 1268.70027,724.45 C1268.90027,725.23 1269.13027,726.04 1269.37027,726.86 C1269.91027,728.67 1286.87027,712 1298.79027,693.14 Z M1342.45027,744.26 C1355.25027,737.3 1365.54027,735.36 1365.54027,735.36 C1365.54027,735.36 1355.24027,733.41 1342.45027,726.46 C1329.65027,719.5 1304.89027,709.37 1287.36027,731.63 L1332.55027,735.36 L1287.36027,739.1 C1304.89027,761.36 1329.65027,751.22 1342.45027,744.27 L1342.45027,744.26 Z M1328.58027,762.11 C1328.58027,760.2 1327.03027,758.65 1325.12027,758.65 C1323.21027,758.65 1321.66027,760.2 1321.66027,762.11 C1321.66027,764.02 1323.21027,765.57 1325.12027,765.57 C1327.03027,765.57 1328.58027,764.02 1328.58027,762.11 Z M1328.58027,708.89 C1328.58027,706.98 1327.03027,705.43 1325.12027,705.43 C1323.21027,705.43 1321.66027,706.98 1321.66027,708.89 C1321.66027,710.8 1323.21027,712.35 1325.12027,712.35 C1327.03027,712.35 1328.58027,710.8 1328.58027,708.89 Z M1321.15027,768.81 C1321.15027,766.42 1319.21027,764.47 1316.81027,764.47 C1314.42027,764.47 1312.47027,766.41 1312.47027,768.81 C1312.47027,771.2 1314.41027,773.15 1316.81027,773.15 C1319.20027,773.15 1321.15027,771.21 1321.15027,768.81 Z M1321.15027,702.19 C1321.15027,699.8 1319.21027,697.85 1316.81027,697.85 C1314.42027,697.85 1312.47027,699.79 1312.47027,702.19 C1312.47027,704.58 1314.41027,706.53 1316.81027,706.53 C1319.20027,706.53 1321.15027,704.59 1321.15027,702.19 Z" id="Path-28" fill="#000000" fill-rule="nonzero"></path>
        <g id="Three-Leaf-Heading" transform="translate(3.000000, 921.000000)">
            <path d="M0,156 L771.23,156" id="Path-2" stroke="#000000" stroke-width="4.15" stroke-linecap="round"></path>
            <path d="M623.53,132 L148,132" id="Path-3" stroke="#000000" stroke-width="3.32" stroke-linecap="round"></path>
            <path d="M412,116 L555.96,116" id="Path-4" stroke="#000000" stroke-width="2.075" stroke-linecap="round"></path>
            <path d="M356.36,116 L215,116" id="Path-5" stroke="#000000" stroke-width="2.075"></path>
            <path d="M396.13,115.53 C397.12,115.83 398.09,116.09 399.03,116.34 C439.28,126.81 435.55,94.84 472.84,69.36 C443.93,53.32 407.22,73.97 390.74,109.74 C390.21,110.9 413.43,85.33 436.63,80.18 C413.98,94.5 393.95,114.88 396.13,115.52 L396.13,115.53 Z M335.21,80.19 C358.41,85.34 381.63,110.9 381.1,109.75 C364.63,73.98 327.92,53.33 299,69.37 C336.29,94.85 332.56,126.82 372.81,116.35 C373.75,116.1 374.72,115.84 375.71,115.54 C377.89,114.89 357.86,94.51 335.21,80.2 L335.21,80.19 Z M396.61,27.74 C388.25,12.36 385.91,0 385.91,0 C385.91,0 383.57,12.36 375.22,27.74 C366.86,43.12 354.69,72.86 381.43,93.91 L385.92,39.63 L390.41,93.91 C417.15,72.86 404.97,43.11 396.62,27.74 L396.61,27.74 Z M418.06,44.4 C415.76,44.4 413.9,46.26 413.9,48.56 C413.9,50.86 415.76,52.72 418.06,52.72 C420.36,52.72 422.22,50.86 422.22,48.56 C422.22,46.26 420.36,44.4 418.06,44.4 Z M354.13,44.4 C351.83,44.4 349.97,46.26 349.97,48.56 C349.97,50.86 351.83,52.72 354.13,52.72 C356.43,52.72 358.29,50.86 358.29,48.56 C358.29,46.26 356.43,44.4 354.13,44.4 Z M426.11,53.33 C423.23,53.33 420.9,55.66 420.9,58.54 C420.9,61.42 423.23,63.75 426.11,63.75 C428.99,63.75 431.32,61.42 431.32,58.54 C431.32,55.66 428.99,53.33 426.11,53.33 Z M346.08,53.33 C343.2,53.33 340.87,55.66 340.87,58.54 C340.87,61.42 343.2,63.75 346.08,63.75 C348.96,63.75 351.29,61.42 351.29,58.54 C351.29,55.66 348.96,53.33 346.08,53.33 Z" id="Path-6" fill="#000000" fill-rule="nonzero"></path>
            <path d="M771.23,255 L0,255" id="Path-7" stroke="#000000" stroke-width="4.15" stroke-linecap="round"></path>
            <path d="M623.53,278 L148,278" id="Path-8" stroke="#000000" stroke-width="3.32" stroke-linecap="round"></path>
            <path d="M555.96,294 L412,294" id="Path-9" stroke="#000000" stroke-width="2.075" stroke-linecap="round"></path>
            <path d="M356.36,294 L215,294" id="Path-10" stroke="#000000" stroke-width="2.075"></path>
            <path d="M436.63,330.200526 C413.43,325.050526 390.21,299.490526 390.74,300.640526 C407.21,336.410526 443.92,357.060526 472.84,341.020526 C435.55,315.540526 439.28,283.570526 399.03,294.040526 C398.09,294.290526 397.12,294.550526 396.13,294.850526 C393.95,295.500526 413.98,315.880526 436.63,330.190526 L436.63,330.200526 Z M375.71,294.860526 C374.72,294.560526 373.75,294.300526 372.81,294.050526 C332.56,283.580526 336.29,315.550526 299,341.030526 C327.91,357.070526 364.63,336.420526 381.1,300.650526 C381.63,299.490526 358.41,325.060526 335.21,330.210526 C357.86,315.890526 377.89,295.510526 375.71,294.870526 L375.71,294.860526 Z M390.4,316.470526 L385.91,370.750526 L381.42,316.470526 C354.68,337.520526 366.86,367.270526 375.21,382.640526 C383.56,398.020526 385.9,410.380526 385.9,410.380526 C385.9,410.380526 388.24,398.020526 396.6,382.640526 C404.96,367.260526 417.13,337.520526 390.39,316.470526 L390.4,316.470526 Z M422.22,361.820526 C422.22,359.520526 420.36,357.660526 418.06,357.660526 C415.76,357.660526 413.9,359.520526 413.9,361.820526 C413.9,364.120526 415.76,365.980526 418.06,365.980526 C420.36,365.980526 422.22,364.120526 422.22,361.820526 Z M358.29,361.820526 C358.29,359.520526 356.43,357.660526 354.13,357.660526 C351.83,357.660526 349.97,359.520526 349.97,361.820526 C349.97,364.120526 351.83,365.980526 354.13,365.980526 C356.43,365.980526 358.29,364.120526 358.29,361.820526 Z M431.32,351.850526 C431.32,348.970526 428.99,346.640526 426.11,346.640526 C423.23,346.640526 420.9,348.970526 420.9,351.850526 C420.9,354.730526 423.23,357.060526 426.11,357.060526 C428.99,357.060526 431.32,354.730526 431.32,351.850526 Z M351.29,351.850526 C351.29,348.970526 348.96,346.640526 346.08,346.640526 C343.2,346.640526 340.87,348.970526 340.87,351.850526 C340.87,354.730526 343.2,357.060526 346.08,357.060526 C348.96,357.060526 351.29,354.730526 351.29,351.850526 Z" id="Path-11" fill="#000000" fill-rule="nonzero"></path>
        </g>
        <path d="M1263.48086,712.491489 C1259.15543,707.941489 1253.3566,711.241489 1251.94153,718.301489 C1251.18294,722.081489 1253.11589,723.301489 1254.55283,719.911489 C1257.00366,714.151489 1261.77403,716.061489 1262.38674,721.001489 C1263.09427,726.711489 1258.3312,729.181489 1254.93942,728.141489 C1246.47093,725.551489 1239.52691,704.181489 1239.51962,704.151489 C1238.63703,700.451489 1236.00385,701.871489 1236.35397,705.771489 C1237.25114,715.931489 1236.39773,725.501489 1234.14384,734.011489 C1233.16643,737.691489 1237.45538,739.281489 1238.41821,735.631489 C1239.81868,730.361489 1240.72315,724.921489 1241.13892,719.401489 C1242.89681,723.001489 1244.98293,726.281489 1247.40458,729.051489 C1251.95612,734.251489 1258.53543,737.211489 1263.56109,731.361489 C1267.7844,726.451489 1267.99593,717.241489 1263.47356,712.501489 L1263.48086,712.491489 Z M1263.56839,738.591489 C1258.54273,732.741489 1251.96342,735.691489 1247.41188,740.901489 C1244.99022,743.671489 1242.9041,746.961489 1241.14621,750.551489 C1240.73045,745.031489 1239.81868,739.591489 1238.4255,734.321489 C1237.45538,730.671489 1233.17372,732.251489 1234.15114,735.941489 C1236.41232,744.451489 1237.25844,754.021489 1236.36126,764.181489 C1236.01844,768.081489 1238.65162,769.501489 1239.52691,765.801489 C1239.53421,765.771489 1246.47823,744.401489 1254.94672,741.811489 C1258.3312,740.771489 1263.10156,743.231489 1262.39403,748.951489 C1261.78132,753.891489 1257.01096,755.801489 1254.56013,750.041489 C1253.12318,746.661489 1251.18294,747.881489 1251.94883,751.651489 C1253.36389,758.701489 1259.16273,762.001489 1263.48815,757.461489 C1268.01051,752.711489 1267.79169,743.511489 1263.57568,738.601489 L1263.56839,738.591489 Z" id="Path-27" fill="#211915" fill-rule="nonzero" transform="translate(1250.404495, 734.976489) scale(-1, 1) translate(-1250.404495, -734.976489) "></path>
    </g>
</svg>