<?xml version="1.0" encoding="UTF-8"?>
<svg width="156px" height="108px" viewBox="0 0 156 108" version="1.1" xmlns="http://www.w3.org/2000/svg" xmlns:xlink="http://www.w3.org/1999/xlink">
    <!-- Generator: Sketch 50.2 (55047) - http://www.bohemiancoding.com/sketch -->
    <title>performance-tech 2</title>
    <desc>Created with Sketch.</desc>
    <defs></defs>
    <g id="Page-1" stroke="none" stroke-width="1" fill="none" fill-rule="evenodd">
        <g id="performance-tech">
            <path d="M42.78,23.71 C42.7766918,22.6165956 42.6762976,21.5256446 42.48,20.45 L46.48,18.16 C46.8062592,17.9717362 47.0443483,17.6615554 47.1418717,17.2977182 C47.2393951,16.933881 47.1883608,16.5462031 47,16.22 L42.31,8.15 C42.1198652,7.80923993 41.798735,7.56098008 41.421075,7.46278848 C41.043415,7.36459688 40.6420316,7.42500318 40.31,7.63 L36.46,9.85 C34.7801441,8.3652711 32.8457013,7.19647464 30.75,6.4 L30.75,2.08 C30.7445043,1.29414084 30.1058784,0.659980784 29.32,0.66 L20,0.66 C19.218024,0.665449508 18.5854495,1.29802404 18.58,2.08 L18.58,6.08 C16.298519,6.81821204 14.1825162,7.99339177 12.35,9.54 L9,7.63 C8.66796842,7.42500318 8.266585,7.36459688 7.888925,7.46278848 C7.51126501,7.56098008 7.19013479,7.80923993 7,8.15 L2.38,16.22 C2.18890271,16.5455673 2.13633899,16.934168 2.23407654,17.2988042 C2.33181409,17.6634405 2.57168925,17.9736555 2.9,18.16 L6.16,20 C5.66677026,22.4218088 5.66677026,24.9181912 6.16,27.34 L2.9,29.26 C2.57101612,29.4482867 2.33096741,29.7602908 2.23329923,30.1265465 C2.13563106,30.4928021 2.18845135,30.8829046 2.38,31.21 L7,39.27 C7.19013479,39.6107601 7.51126501,39.8590199 7.888925,39.9572115 C8.266585,40.0554031 8.66796842,39.9949968 9,39.79 L12.38,37.84 C14.2100175,39.3902261 16.3267684,40.5658213 18.61,41.3 L18.61,45.3 C18.5992569,45.6783404 18.7400018,46.0453137 19.0009845,46.3194394 C19.2619672,46.5935651 19.6215884,46.7521562 20,46.76 L29.31,46.76 C29.6883371,46.7626644 30.0520939,46.6142348 30.3205623,46.3476438 C30.5890307,46.0810528 30.7400094,45.7183464 30.74,45.34 L30.74,41 C32.8552448,40.2127965 34.8077087,39.043352 36.5,37.55 L40.35,39.77 C40.6820316,39.9749968 41.083415,40.0354031 41.461075,39.9372115 C41.838735,39.8390199 42.1598652,39.5907601 42.35,39.25 L47,31.21 C47.3931374,30.5276972 47.1606724,29.6559535 46.48,29.26 L42.48,26.97 C42.67677,25.8944201 42.7771682,24.8034269 42.78,23.71 Z M24.29,31.45 C21.1567608,31.4621444 18.3252817,29.5840733 17.1178186,26.6928161 C15.9103555,23.8015589 16.5651315,20.4675383 18.7763767,18.2476891 C20.9876218,16.02784 24.3190744,15.3601213 27.214999,16.5563471 C30.1109235,17.752573 31.9999765,20.5767373 32,23.71 C32.0055321,27.9752654 28.5552548,31.438968 24.29,31.45 Z" id="Shape" fill="#6483A7" fill-rule="nonzero"></path>
            <path d="M42.78,23.71 C42.7766918,22.6165956 42.6762976,21.5256446 42.48,20.45 L46.48,18.16 C46.8062592,17.9717362 47.0443483,17.6615554 47.1418717,17.2977182 C47.2393951,16.933881 47.1883608,16.5462031 47,16.22 L42.31,8.15 C42.1198652,7.80923993 41.798735,7.56098008 41.421075,7.46278848 C41.043415,7.36459688 40.6420316,7.42500318 40.31,7.63 L36.46,9.85 C34.7801441,8.3652711 32.8457013,7.19647464 30.75,6.4 L30.75,2.08 C30.7445043,1.29414084 30.1058784,0.659980784 29.32,0.66 L20,0.66 C19.218024,0.665449508 18.5854495,1.29802404 18.58,2.08 L18.58,6.08 C16.298519,6.81821204 14.1825162,7.99339177 12.35,9.54 L9,7.63 C8.66796842,7.42500318 8.266585,7.36459688 7.888925,7.46278848 C7.51126501,7.56098008 7.19013479,7.80923993 7,8.15 L2.38,16.22 C2.18890271,16.5455673 2.13633899,16.934168 2.23407654,17.2988042 C2.33181409,17.6634405 2.57168925,17.9736555 2.9,18.16 L6.16,20 C5.66677026,22.4218088 5.66677026,24.9181912 6.16,27.34 L2.9,29.26 C2.57101612,29.4482867 2.33096741,29.7602908 2.23329923,30.1265465 C2.13563106,30.4928021 2.18845135,30.8829046 2.38,31.21 L7,39.27 C7.19013479,39.6107601 7.51126501,39.8590199 7.888925,39.9572115 C8.266585,40.0554031 8.66796842,39.9949968 9,39.79 L12.38,37.84 C14.2100175,39.3902261 16.3267684,40.5658213 18.61,41.3 L18.61,45.3 C18.5992569,45.6783404 18.7400018,46.0453137 19.0009845,46.3194394 C19.2619672,46.5935651 19.6215884,46.7521562 20,46.76 L29.31,46.76 C29.6883371,46.7626644 30.0520939,46.6142348 30.3205623,46.3476438 C30.5890307,46.0810528 30.7400094,45.7183464 30.74,45.34 L30.74,41 C32.8552448,40.2127965 34.8077087,39.043352 36.5,37.55 L40.35,39.77 C40.6820316,39.9749968 41.083415,40.0354031 41.461075,39.9372115 C41.838735,39.8390199 42.1598652,39.5907601 42.35,39.25 L47,31.21 C47.3931374,30.5276972 47.1606724,29.6559535 46.48,29.26 L42.48,26.97 C42.67677,25.8944201 42.7771682,24.8034269 42.78,23.71 Z M24.29,31.45 C21.1567608,31.4621444 18.3252817,29.5840733 17.1178186,26.6928161 C15.9103555,23.8015589 16.5651315,20.4675383 18.7763767,18.2476891 C20.9876218,16.02784 24.3190744,15.3601213 27.214999,16.5563471 C30.1109235,17.752573 31.9999765,20.5767373 32,23.71 C32.0055321,27.9752654 28.5552548,31.438968 24.29,31.45 Z" id="Shape"></path>
            <path d="M32.78,22.7 C32.6546853,20.8355611 31.8210784,19.0896378 30.45,17.82 C28.5510346,16.0181547 25.9939024,15.0777666 23.38,15.22 C22.062662,15.3269058 20.7902892,15.7487437 19.67,16.45 C18.9664311,16.8897618 18.335555,17.4362962 17.8,18.07 C17.3652015,18.5814437 16.9863783,19.137945 16.67,19.73 L16.49,20.14 C15.8025831,21.7614388 15.6145641,23.551102 15.95,25.28 C16.3780529,27.6353537 17.7652376,29.7070759 19.78,31 C20.9378664,31.738207 22.2606219,32.1779803 23.63,32.28 C23.8247701,32.2970081 24.0210143,32.2800905 24.21,32.23 C24.3395109,32.2852326 24.4792254,32.312494 24.62,32.31 L24.83,32.31 C25.1921883,32.3074316 25.5534977,32.273977 25.91,32.21 C28.0070793,31.7654576 29.864017,30.5572006 31.12,28.82 C31.7774673,27.9180105 32.2591949,26.9002762 32.54,25.82 C32.7871121,24.7996496 32.8681513,23.7461398 32.78,22.7 Z M24.16,30.75 C23.9656231,30.7117229 23.7681031,30.6916361 23.57,30.69 C20.2795831,30.3763149 17.6569999,27.803765 17.28,24.52 C17.1965776,23.7693481 17.2303134,23.0102915 17.38,22.27 C17.38,22.16 17.43,22.05 17.45,21.94 C17.4815619,21.7662101 17.5284106,21.5955471 17.59,21.43 C17.6817786,21.1917207 17.7921174,20.9610122 17.92,20.74 L18.06,20.49 C18.45387,19.7338985 18.9825474,19.056107 19.62,18.49 C20.7485346,17.4984053 22.1713697,16.9046791 23.67,16.8 L24.11,16.8 C25.3655471,16.8032292 26.5964168,17.1489791 27.67,17.8 L27.79,17.87 C28.0750594,18.0259473 28.3520775,18.1961633 28.62,18.38 C29.0911766,18.7454997 29.5145003,19.1688234 29.88,19.64 C30.2876967,20.1137462 30.6092256,20.6552686 30.83,21.24 C31.267874,22.6224544 31.3265839,24.0971105 31,25.51 C30.7993224,26.3718188 30.4212901,27.1823745 29.89,27.89 C29.057146,29.0681663 27.8851132,29.9646318 26.53,30.46 C26.4408681,30.5040968 26.346901,30.5376565 26.25,30.56 L26.06,30.61 C25.6066978,30.7092679 25.1440439,30.7595563 24.68,30.76 C24.5703094,30.7483327 24.4596906,30.7483327 24.35,30.76 L24.16,30.75 Z" id="Shape" fill="#002856" fill-rule="nonzero"></path>
            <path d="M46.85,18.71 C47.2971896,18.4244358 47.6216983,17.9822481 47.76,17.47 C47.837122,17.1411275 47.837122,16.7988725 47.76,16.47 C47.7131987,16.3039402 47.649534,16.1431031 47.57,15.99 L47.38,15.66 L45.23,11.96 L43.8,9.44 L43.08,8.21 C42.9540691,7.96204298 42.8032964,7.72750778 42.63,7.51 C42.4014192,7.25113594 42.1130606,7.0520312 41.79,6.93 C41.1570233,6.69925764 40.4512143,6.79261861 39.9,7.18 L38.66,7.9 L36.57,9.13 C36.36,8.96 36.27,8.88 35.83,8.55 C35.1239544,8.01457894 34.3785037,7.53321171 33.6,7.11 C33.1780889,6.8681904 32.7441996,6.64790814 32.3,6.45 L31.69,6.18 L31.3,6 C31.3,5.21 31.3,4.41 31.3,3.6 L31.3,2.23 C31.3407633,1.59524674 31.0771672,0.978951677 30.59,0.57 C30.34496,0.365100683 30.0528958,0.224222666 29.74,0.16 C29.4773118,0.133932127 29.2126882,0.133932127 28.95,0.16 L21.11,0.16 C20.57,0.16 20.23,0.16 19.81,0.16 C19.5339311,0.187727912 19.2674919,0.276541003 19.03,0.42 C18.3902975,0.825062322 18.0341841,1.556643 18.11,2.31 C18.11,2.88 18.11,3.44 18.11,4 L18.08,5 C18.0679218,5.23477041 18.0412032,5.46855817 18,5.7 C17.78,5.7 17.66,5.76 17.43,5.83 C17.2,5.9 16.8,6.05 16.49,6.18 C15.661951,6.5414318 14.8629278,6.96601733 14.1,7.45 C13.4742605,7.8428993 12.8731382,8.27370363 12.3,8.74 L10.59,7.74 L9.54,7.16 C9.3207265,7.01344379 9.08164611,6.89895459 8.83,6.82 C8.01671079,6.59527514 7.14729107,6.86941649 6.61,7.52 C6.47908168,7.68683106 6.36202494,7.86408841 6.26,8.05 L6,8.49 L4.94,10.28 L2.82,13.84 L1.76,15.62 C1.62848931,15.8113347 1.52416133,16.0199906 1.45,16.24 C1.35905844,16.5032726 1.32165912,16.7820675 1.34,17.06 C1.36893019,17.6210143 1.60395492,18.1516004 2,18.55 C2.30658378,18.8222503 2.64189198,19.0603191 3,19.26 L3.89,19.8 L4.78,20.33 L5.08,20.53 L5.08,20.72 L5.08,20.85 L5.08,21.17 C4.92151546,22.2324574 4.84794928,23.3058548 4.86,24.38 C4.86,24.91 4.86,25.45 4.95,25.99 L5.03,26.67 L5.03,26.81 L4.92,26.86 L4.82,26.91 L4.53,27.07 L3.35,27.71 L2.67,28 C2.40930482,28.1295211 2.16152202,28.2835482 1.93,28.46 C1.25978436,28.9834874 0.886637971,29.800678 0.93,30.65 C0.95607782,31.0602291 1.07215904,31.459685 1.27,31.82 L1.6,32.41 L2.24,33.58 L3.58,36 C4.31,37.31 5.19,38.53 5.98,39.8 C6.19009212,40.2044361 6.49985225,40.548614 6.88,40.8 C7.27899217,41.0487346 7.7398261,41.1804014 8.21,41.18 C8.67314229,41.181595 9.12849298,41.0608581 9.53,40.83 L10.2,40.42 L11.53,39.6 L12.1,39.25 L12.27,39.13 L12.46,39.25 C13.353448,39.8868844 14.3042118,40.4392647 15.3,40.9 C15.8,41.13 16.3,41.34 16.81,41.54 L17.52,41.79 L17.87,41.9 L17.87,42.2 L17.87,42.69 L17.8,44.84 L17.8,45.38 C17.7904708,45.6542841 17.827668,45.9281908 17.91,46.19 C18.114858,46.709527 18.5025004,47.1362892 19,47.39 C19.2582761,47.528953 19.539403,47.6204039 19.83,47.66 C20.18,47.66 20.25,47.66 20.46,47.66 L21.54,47.66 L23.69,47.72 C25.12,47.72 26.55,47.77 27.99,47.72 L29.34,47.72 C29.4830372,47.7330297 29.6269628,47.7330297 29.77,47.72 C30.0793817,47.6701503 30.3753858,47.5578729 30.64,47.39 C31.1366672,47.0671854 31.4964066,46.5720985 31.65,46 C31.712131,45.5554939 31.712131,45.1045061 31.65,44.66 C31.65,44.05 31.6,43.45 31.57,42.85 L31.57,41.59 L31.87,41.46 L32.65,41.1 C33.18,40.84 33.7,40.56 34.2,40.26 C34.7,39.96 35.2,39.63 35.66,39.26 L36.33,38.74 L36.59,38.5 L36.67,38.5 L39.93,40.27 C40.800618,40.8041197 41.9297525,40.630732 42.6,39.86 C42.8224159,39.5425448 43.0196831,39.2081936 43.19,38.86 L43.68,37.96 L45.68,34.34 L46.68,32.53 L47.17,31.62 C47.3951634,31.2876733 47.5264476,30.9007305 47.55,30.5 C47.5485681,29.8222571 47.1602532,29.2048365 46.55,28.91 L45.8,28.47 L44.26,27.47 L43.5,26.99 L42.98,26.65 L43.11,26.01 C43.11,25.7 43.2,25.39 43.24,25.08 C43.28,24.77 43.37,23.02 43.39,22.74 C43.41,22.46 43.39,21.2 43.39,21.2 L43.32,20.72 L45.32,19.52 L46.85,18.71 Z M41.23,19.86 L41.4,20.86 L41.52,21.67 C41.52,22.1 41.52,24.67 41.52,24.96 C41.52,25.25 41.44,25.55 41.38,25.84 L41,27.65 L42.61,28.65 L43.46,29.14 L45.71,30.39 C45.83,30.45 45.81,30.39 45.85,30.51 C45.8548559,30.5330807 45.8548559,30.5569193 45.85,30.58 C45.85,30.58 45.85,30.58 45.85,30.58 L45.71,30.84 L43.23,35.35 L42,37.6 L41.38,38.73 C41.3275464,38.8441492 41.2233185,38.9260425 41.1,38.95 L41,38.95 L40.91,38.95 L40.63,38.8 L39.51,38.17 L36.8,36.66 L36.4,36.44 L35.32,37.38 L34.66,37.9 C34.23,38.22 33.78,38.51 33.33,38.79 C32.88,39.07 32.4,39.32 31.92,39.56 L31.17,39.89 L29.85,40.41 L29.85,45.41 C29.8385634,45.4880085 29.8113424,45.5628663 29.77,45.63 C29.6820359,45.7638896 29.5391642,45.8518106 29.38,45.87 L26.86,45.87 C25.13,45.87 23.41,45.87 21.69,45.76 L20.69,45.76 C20.4391286,45.7612062 20.1884912,45.744497 19.94,45.71 C19.7887029,45.6455626 19.7108767,45.4769392 19.76,45.32 L19.76,43.32 L19.76,40.45 L18.12,39.89 L17.33,39.57 C16.8233333,39.35 16.3233333,39.11 15.83,38.85 C15.33,38.59 14.83,38.3 14.38,38 L13.68,37.54 L12.4,36.54 L11.4,37.16 L10.67,37.63 L9.59,38.35 L8.59,39.01 C8.45289048,39.1464841 8.26280267,39.2159393 8.07,39.2 C7.88425878,39.1906758 7.71378609,39.0943217 7.61,38.94 L6.98,37.94 C6.15,36.61 5.33,35.26 4.53,33.94 L3.42,31.83 L2.86,30.83 C2.76502144,30.6202511 2.76502144,30.3797489 2.86,30.17 C2.90219223,30.06684 2.96714185,29.9745432 3.05,29.9 C3.15649585,29.804006 3.27813792,29.7262903 3.41,29.67 L4.41,29.1 L7,27.74 L6.79,26.47 C6.79,26.13 6.73,25.92 6.7,25.63 C6.7,25.1 6.65,24.56 6.7,24.03 C6.75,23.5 6.7,22.96 6.8,22.44 L6.91,21.64 L7,20.69 L7.24,19.56 L4.08,17.63 L3.44,17.23 C3.38713003,17.1961182 3.34539717,17.1474299 3.32,17.09 C3.25658729,16.989139 3.25658729,16.860861 3.32,16.76 L8.06,8.76 L8.11,8.71 C8.15729687,8.68674862 8.21270313,8.68674862 8.26,8.71 C8.26,8.71 8.78,8.97 8.78,8.97 L10.51,9.97 L12.48,11 C12.48,11 14.1,9.7 14.33,9.54 C14.75,9.25 15.18,8.97 15.62,8.71 C16.06,8.45 16.52,8.2 17,8 L17.7,7.7 C17.94,7.6 18.11,7.53 18.7,7.33 L19.77,7 L19.72,4.09 L19.72,2.09 C19.7039937,1.90641115 19.8220217,1.73779969 20,1.69 L22,1.69 L26.13,1.61 L28.19,1.61 L29.19,1.61 C29.3704745,1.58125787 29.5540807,1.6377696 29.6871584,1.76301921 C29.8202361,1.88826882 29.8877616,2.06811633 29.87,2.25 L29.87,7 L31.18,7.52 L31.92,7.86 C32.4,8.1 32.87,8.36 33.33,8.64 C33.79,8.92 34.23,9.22 34.65,9.54 L35.31,10.06 L36.41,11 L39.32,9.36 C39.9724288,9.00278311 40.6837268,8.76568377 41.42,8.66 L42.08,9.82 L43.39,12.15 L44.89,14.78 L45.64,16.1 L46.01,16.76 C46.0291486,16.8116146 46.0291486,16.8683854 46.01,16.92 C46.0103681,17.0435539 45.9349494,17.1546972 45.82,17.2 L44.53,18 L41.23,19.86 Z" id="Shape" fill="#002856" fill-rule="nonzero"></path>
            <rect id="Rectangle-path" fill="#FFFFFF" fill-rule="nonzero" x="24.59" y="23.01" width="100.23" height="70.19" rx="1"></rect>
            <rect id="Rectangle-path" fill="#7F93AA" fill-rule="nonzero" x="25.61" y="24" width="98.26" height="16.46"></rect>
            <path d="M124.63,39.75 C124.451081,39.6574612 124.251301,39.6126829 124.05,39.62 L123.51,39.62 C122.96,39.62 122.38,39.57 121.82,39.62 L110,39.78 C108.26,39.78 106.5,39.78 104.78,39.78 C104.78,39.78 90.71,39.53 87.65,39.78 C82.89,40.12 63.74,39.63 62.79,39.64 L56.7,39.64 C56.7,39.64 48.93,39.8 46.7,39.8 C43.77,39.8 40.83,39.8 37.96,39.74 L33.44,39.74 L25.85,39.74 C25.5614698,39.7221787 25.2723201,39.7629998 25,39.86 C24.7246608,39.9634929 24.508851,40.1829604 24.41,40.46 C24.3877038,40.5904669 24.42027,40.7243503 24.5,40.83 C24.6390843,40.9992666 24.8414995,41.1040887 25.06,41.12 C25.4315611,41.1661018 25.8055901,41.1894786 26.18,41.19 L63.08,41.19 C66.27,41.19 76.22,41.4 77.67,41.44 C79.44,41.44 90.67,41.3 91.11,41.28 C92.11,41.23 106.45,41.28 107.7,41.28 L120.86,40.98 L124,41 C124.197935,41.0241174 124.398682,40.992967 124.58,40.91 C124.72,40.83 125,40.61 125,40.36 C124.97622,40.1108567 124.839961,39.886214 124.63,39.75 Z" id="Shape" fill="#002856" fill-rule="nonzero"></path>
            <path d="M41.39,60.27 L28.27,60.27 L28.27,44.27 L41.39,44.27 L41.39,60.27 Z M29.85,58.7 L39.85,58.7 L39.85,45.85 L29.85,45.85 L29.85,58.7 Z" id="Shape" fill="#002856" fill-rule="nonzero" opacity="0.5"></path>
            <path d="M54.76,86.41 L54.76,76.72 C54.76,73.49 54.68,70.26 54.76,67.04 C54.76,61.89 54.87,56.74 55.01,51.6 L55,48.07 C55.0026109,47.8374933 55.0981857,47.6157069 55.2653971,47.4541319 C55.4326085,47.2925568 55.6575405,47.20464 55.89,47.21 L62.61,47.35 L69.44,47.41 C74,47.41 97.44,46.76 104.6,47.03 C106.6,47.1 108.52,47.13 110.49,47.13 L116.37,47.13 C116.830009,47.1354767 117.200033,47.5099582 117.2,47.97 L117.2,55.3 L117.2,61.89 C117.32,70.2033333 117.44,78.5366667 117.56,86.89 C117.56,88.45 117.5,90.01 117.45,91.57 C117.458117,91.9103028 117.40389,92.2492183 117.29,92.57 C117.15,92.86 116.85,93.21 116.63,93.2 C116.41,93.19 116.14,92.82 116.01,92.51 C115.91811,92.1851427 115.884258,91.8466204 115.91,91.51 L116.09,84.86 L116.09,83.86 L116.03,81.86 C115.91,75.1933333 115.783333,68.5266667 115.65,61.86 L115.65,55.43 L115.65,52.21 L115.52,48.87 L113.93,48.93 L111.44,48.93 L106.44,48.88 C103.14,48.79 90.37,48.77 87.3,48.88 L78.73,49 C76.91,49 75.1,49.18 73.28,49.16 L56.73,48.87 L56.73,50.87 C56.6633333,58.09 56.5833333,65.3033333 56.49,72.51 C56.49,72.51 56.3,88.09 56.27,89.75 C56.27,90.86 56.27,92.22 56.33,92.75 L83.22,92.75 L113,92.56 C113.804502,92.552918 114.608851,92.5862935 115.41,92.66 C115.92,92.66 116.52,92.93 116.41,93.35 C116.3,93.77 115.84,93.95 115.41,94.07 C114.876902,94.1997677 114.328155,94.2536325 113.78,94.23 L97.78,94.17 C88.45,94.11 79.11,93.98 69.78,93.99 L62.78,94.04 L54.84,94.16 L54.72,86.41 L54.76,86.41 Z" id="Shape" fill="#002856" fill-rule="nonzero"></path>
            <path d="M41.39,79.14 L28.27,79.14 L28.27,63.14 L41.39,63.14 L41.39,79.14 Z M29.85,77.57 L39.85,77.57 L39.85,64.71 L29.85,64.71 L29.85,77.57 Z" id="Shape" fill="#002856" fill-rule="nonzero" opacity="0.5"></path>
            <path d="M41.39,94 L28.27,94 L28.27,82 L41.39,82 L41.39,94 Z M29.85,92.41 L39.85,92.41 L39.85,83.58 L29.85,83.58 L29.85,92.41 Z" id="Shape" fill="#002856" fill-rule="nonzero" opacity="0.5"></path>
            <path d="M46.12,88.91 C46.12,87.74 46.12,86.57 46.05,85.4 C46.05,84.4 46.05,79.78 46.05,79.02 C46.15,77.02 45.93,68.68 46.05,65.96 C46.1,64.68 46.12,59.69 46.12,59.69 C46.12,59.12 46.12,55.69 46.12,55.69 C46.12,54.5 46.12,45.17 46.12,45.17 C46.12,43.84 46.12,40.81 46.06,40.61 C45.9627563,40.3779748 45.7632217,40.2043058 45.52,40.14 C45.373578,40.1106336 45.2215323,40.1432148 45.1,40.23 C44.9530783,40.3534435 44.8598551,40.5291334 44.84,40.72 C44.84,40.94 44.84,43.31 44.84,43.31 C44.84,45.14 44.84,60.21 44.84,60.74 C44.84,62.54 44.73,67.74 44.71,68.49 C44.69,69.24 44.78,75.25 44.79,75.49 C44.79,75.99 44.69,80.78 44.79,82.2 C44.79,82.85 44.9,87.76 44.93,88.94 L44.93,92.74 C44.9115272,92.897846 44.9393207,93.0576587 45.01,93.2 C45.1122951,93.4114242 45.3164534,93.5550912 45.55,93.58 C45.79,93.58 46.21,92.91 46.21,92.79 L46.21,92.48 C46.16,92.2 46.12,88.91 46.12,88.91 Z" id="Shape" fill="#002856" fill-rule="nonzero"></path>
            <path d="M127,44.08 C126.94,40.27 126.93,36.46 126.93,33.57 L126.93,25.31 C126.963313,24.7015765 126.90602,24.0915801 126.76,23.5 C126.538617,22.7531661 126.087176,22.0952522 125.47,21.62 C124.872498,21.1719945 124.155678,20.9110164 123.41,20.87 C123.15,20.87 80.49,20.87 80.49,20.87 C77.75,20.87 37.24,21.34 32.68,21.21 L26.12,21 L26,21 C24.1508546,21.0406717 22.63341,22.4759754 22.49,24.32 L22.35,27.9 C22.06,35.68 21.93,43.38 21.81,52.56 C21.81,55.8 21.81,59.08 21.86,62.26 C21.86,64.19 21.92,66.11 21.93,68.04 L21.85,83.13 L22.02,90.89 C21.9854074,91.5417632 22.0632089,92.1946193 22.25,92.82 C22.6505206,94.0727612 23.6412924,95.048578 24.9,95.43 C25.526006,95.593546 26.174997,95.6510088 26.82,95.6 L32.14,95.48 C37,95.37 42.76,95.25 48.69,95.24 C58.54,95.24 68.59,95.35 78.29,95.47 L93.41,95.63 L119.03,95.76 L119.16,95.76 C121.299132,95.5624427 123.423458,95.2284291 125.52,94.76 C126.18255,94.4796961 126.726984,93.9776852 127.06,93.34 C127.247363,92.9891805 127.37894,92.6113182 127.45,92.22 C127.45,92.02 127.81,85.8 127.77,83.87 L127,44.08 Z M117.91,91.45 L117.76,91.45 L106.1,91.45 C94.31,91.45 82.1,91.51 70.1,91.64 C62.79,91.72 48.97,91.7 38.89,91.7 C32.6,91.7 26.63,91.75 26.63,91.75 C26.63,91.75 25.95,91.59 25.89,91.42 C25.83,91.25 25.89,86.42 26.04,85.15 C26.15,83.76 26.26,82.32 26.28,80.9 L26.28,61.36 L26.83,25.36 L54,25.28 C55.65,25.23 88.28,25.15 89.93,25.06 C93.13,24.9 107.93,25.38 107.93,25.38 C110.93,25.46 113.69,25.48 116.28,25.47 L120.45,25.39 C121.195817,25.3396259 121.944183,25.3396259 122.69,25.39 L122.69,25.49 C122.69,25.58 122.8,28.61 122.8,28.61 L122.87,36.1 C122.87,38.69 122.87,41.38 122.94,44.03 L123.75,75.93 C123.75,75.93 123.88,80.18 123.86,80.73 L123.5,91.34 C123.5,91.62 119.34,91.45 117.93,91.45 L117.91,91.45 Z" id="Shape" fill="#39393A" fill-rule="nonzero"></path>
            <polygon id="Shape" fill="#A1C2E9" fill-rule="nonzero" points="60.42 102.31 57.34 99.77 84.06 67.47 115.31 71.05 144.47 50.76 146.75 54.05 116.36 75.19 85.75 71.69"></polygon>
            <polygon id="Shape" fill="#A1C2E9" fill-rule="nonzero" points="148.25 60.29 155.04 45.85 139.14 47.19"></polygon>
            <circle id="Oval" fill="#A1C2E9" fill-rule="nonzero" cx="84.91" cy="69.58" r="6.85"></circle>
            <circle id="Oval" fill="#A1C2E9" fill-rule="nonzero" cx="115.75" cy="72.79" r="6.85"></circle>
            <circle id="Oval" fill="#A1C2E9" fill-rule="nonzero" cx="58.88" cy="101.04" r="6.85"></circle>
        </g>
    </g>
</svg>